<?xml version="1.0" encoding="UTF-8" standalone="no"?>
<!-- Created with Inkscape (http://www.inkscape.org/) -->

<svg
   xmlns:dc="http://purl.org/dc/elements/1.1/"
   xmlns:cc="http://creativecommons.org/ns#"
   xmlns:rdf="http://www.w3.org/1999/02/22-rdf-syntax-ns#"
   xmlns:svg="http://www.w3.org/2000/svg"
   xmlns="http://www.w3.org/2000/svg"
   xmlns:sodipodi="http://sodipodi.sourceforge.net/DTD/sodipodi-0.dtd"
   xmlns:inkscape="http://www.inkscape.org/namespaces/inkscape"
   width="50mm"
   height="50mm"
   viewBox="0 0 177.16535 177.16536"
   id="svg2"
   version="1.1"
   inkscape:version="0.91 r13725"
   sodipodi:docname="drm.svg">
  <defs
     id="defs4" />
  <sodipodi:namedview
     id="base"
     pagecolor="#ffffff"
     bordercolor="#666666"
     borderopacity="1.0"
     inkscape:pageopacity="0.0"
     inkscape:pageshadow="2"
     inkscape:zoom="1.4"
     inkscape:cx="17.480921"
     inkscape:cy="149.46935"
     inkscape:document-units="px"
     inkscape:current-layer="layer1"
     showgrid="false"
     fit-margin-top="0"
     fit-margin-left="0"
     fit-margin-right="0"
     fit-margin-bottom="0"
     inkscape:window-width="1600"
     inkscape:window-height="836"
     inkscape:window-x="0"
     inkscape:window-y="27"
     inkscape:window-maximized="1" />
  <metadata
     id="metadata7">
    <rdf:RDF>
      <cc:Work
         rdf:about="">
        <dc:format>image/svg+xml</dc:format>
        <dc:type
           rdf:resource="http://purl.org/dc/dcmitype/StillImage" />
        <dc:title></dc:title>
      </cc:Work>
    </rdf:RDF>
  </metadata>
  <g
     inkscape:label="Calque 1"
     inkscape:groupmode="layer"
     id="layer1"
     transform="translate(-1.1889654e-8,-3.6957748)">
    <path
       style="fill:none;fill-rule:evenodd;stroke:#000000;stroke-width:6.06190252px;stroke-linecap:butt;stroke-linejoin:miter;stroke-opacity:1"
       d="m 99.476704,166.00201 5.304886,3.98263 z m 4.917926,-23.80142 -8.706545,32.78931 31.658735,-16.04096 m 0.70164,-1.66241 -22.68415,-16.14257 45.3683,-68.336344 22.68415,16.411474 z M 2.9933089,120.74612 l 101.7585211,0 m -23.705414,57.45915 -78.0531071,0 0,-171.50912 141.5811311,0 0,55.358575 -141.5811311,0 m 51.3174031,-34.111579 11.663078,0 0,11.704603 -11.663078,0 z m -23.326155,0 11.663078,0 0,11.704603 -11.663078,0 z m 23.930221,56.32693 11.663078,0 0,11.704605 -11.663078,0 z m -23.326156,0 11.663078,0 0,11.704605 -11.663078,0 z m 23.930231,56.326914 11.663078,0 0,11.7046 -11.663078,0 z m -23.326155,0 11.663077,0 0,11.7046 -11.663077,0 z"
       id="path4313-7-3"
       inkscape:connector-curvature="0"
       sodipodi:nodetypes="ccccccccccccccccccccccccccccccccccccccccccccccccc" />
  </g>
</svg>
