<?xml version="1.0" encoding="UTF-8" standalone="no"?>
<!-- Created with Inkscape (http://www.inkscape.org/) -->

<svg
   xmlns:dc="http://purl.org/dc/elements/1.1/"
   xmlns:cc="http://creativecommons.org/ns#"
   xmlns:rdf="http://www.w3.org/1999/02/22-rdf-syntax-ns#"
   xmlns:svg="http://www.w3.org/2000/svg"
   xmlns="http://www.w3.org/2000/svg"
   xmlns:sodipodi="http://sodipodi.sourceforge.net/DTD/sodipodi-0.dtd"
   xmlns:inkscape="http://www.inkscape.org/namespaces/inkscape"
   width="7.2078114mm"
   height="7.2228651mm"
   viewBox="0 0 25.539489 25.592829"
   id="svg2"
   version="1.1"
   inkscape:version="0.91 r13725"
   sodipodi:docname="drm.svg">
  <defs
     id="defs4" />
  <sodipodi:namedview
     id="base"
     pagecolor="#ffffff"
     bordercolor="#666666"
     borderopacity="1.0"
     inkscape:pageopacity="0.0"
     inkscape:pageshadow="2"
     inkscape:zoom="2.8"
     inkscape:cx="43.814669"
     inkscape:cy="-54.37798"
     inkscape:document-units="px"
     inkscape:current-layer="layer1"
     showgrid="false"
     fit-margin-top="0"
     fit-margin-left="0"
     fit-margin-right="0"
     fit-margin-bottom="0"
     inkscape:window-width="1920"
     inkscape:window-height="1016"
     inkscape:window-x="0"
     inkscape:window-y="27"
     inkscape:window-maximized="1" />
  <metadata
     id="metadata7">
    <rdf:RDF>
      <cc:Work
         rdf:about="">
        <dc:format>image/svg+xml</dc:format>
        <dc:type
           rdf:resource="http://purl.org/dc/dcmitype/StillImage" />
        <dc:title></dc:title>
      </cc:Work>
    </rdf:RDF>
  </metadata>
  <g
     inkscape:label="Calque 1"
     inkscape:groupmode="layer"
     id="layer1"
     transform="translate(-292.61424,-623.74959)">
    <path
       style="fill:#000000"
       d="m 305.65373,647.19238 c 0,-2.62675 5.82426,-14.4334 7.12004,-14.4334 0.36212,0 1.72074,0.94892 3.01918,2.1087 l 2.36078,2.10871 -2.69936,-1.59858 c -2.68447,-1.58976 -2.71337,-1.57519 -5.24075,2.6413 -2.34831,3.91775 -2.41321,4.33513 -0.85431,5.49367 1.44366,1.0729 1.96148,0.82041 3.58895,-1.75 2.768,-4.37176 3.15467,-3.68054 0.51085,0.91319 -1.23988,2.15435 -3.50332,4.65479 -5.02986,5.55654 -2.75141,1.6253 -2.77552,1.61626 -2.77552,-1.04013 z m 3.90308,-0.81662 c 0.88853,-1.07061 0.78472,-1.5226 -0.45934,-2 -2.32273,-0.89131 -2.44374,-0.82282 -2.44374,1.38322 0,2.32481 1.26287,2.59312 2.90308,0.61678 z m -16.23641,-0.28345 c -1.21628,-1.21628 -0.74593,-19.85407 0.53333,-21.13333 1.61252,-1.61252 16.98748,-1.61252 18.6,0 0.66,0.66 1.15514,2.1225 1.10032,3.25 -0.0835,1.71731 -0.21254,1.64428 -0.79509,-0.45 -0.67559,-2.42878 -0.95051,-2.5 -9.65031,-2.5 l -8.95492,0 -0.31027,3.20858 -0.31027,3.20859 8.31027,0.33787 8.31027,0.33787 -8.25,0.20354 -8.25,0.20355 0,2.95228 c 0,2.91693 0.0748,2.95654 6.25,3.30732 l 6.25,0.35504 -6.25,0.19268 c -6.19405,0.19095 -6.25,0.21879 -6.25,3.10935 0,1.60416 0.5625,3.14364 1.25,3.42105 0.69783,0.28158 0.77145,0.53926 0.16667,0.58333 -0.59584,0.0434 -1.38334,-0.22105 -1.75,-0.58772 z m 4.58333,-0.0227 c 0.9625,-0.25152 2.5375,-0.25152 3.5,0 0.9625,0.25153 0.175,0.45733 -1.75,0.45733 -1.925,0 -2.7125,-0.2058 -1.75,-0.45733 z"
       id="path4203"
       inkscape:connector-curvature="0" />
  </g>
</svg>
