<?xml version="1.0" encoding="UTF-8" standalone="no"?>
<svg
   xmlns:dc="http://purl.org/dc/elements/1.1/"
   xmlns:cc="http://creativecommons.org/ns#"
   xmlns:rdf="http://www.w3.org/1999/02/22-rdf-syntax-ns#"
   xmlns:svg="http://www.w3.org/2000/svg"
   xmlns="http://www.w3.org/2000/svg"
   viewBox="0 0 36 24"
   height="24"
   width="36"
   version="1.1"
   id="svg4580">
  <metadata
     id="metadata4586">
    <rdf:RDF>
      <cc:Work
         rdf:about="">
        <dc:format>image/svg+xml</dc:format>
        <dc:type
           rdf:resource="http://purl.org/dc/dcmitype/StillImage" />
        <dc:title></dc:title>
      </cc:Work>
    </rdf:RDF>
  </metadata>
  <defs
     id="defs4584" />
  <path
     id="path5130"
     d="m 0.00507,14.75 0.0051,-9.2500003 9.288954,-2.531356 9.288956,-2.53135502 8.455961,2.57373202 9.031232,2.358005 C 36.022803,11.579405 36.050873,17.789613 36.075052,24 l -3.037525,0 -3.037526,0 0,-7 0,-7 -7,0 -7,0 0,7 0,7 L 8,24 0,24 Z m 11.994916,-1.25 0,-1.5 -4.000001,0 -4,0 0,1.5 0,1.5 4,0 4.000001,0 z m 5,0.5 0,-3 6,0 6,0 0,3 0,3 -6,0 -6,0 z"
     style="fill:#000000" />
</svg>
