<?xml version="1.0" encoding="UTF-8" standalone="no"?>
<!-- Created with Inkscape (http://www.inkscape.org/) -->

<svg
   xmlns:dc="http://purl.org/dc/elements/1.1/"
   xmlns:cc="http://creativecommons.org/ns#"
   xmlns:rdf="http://www.w3.org/1999/02/22-rdf-syntax-ns#"
   xmlns:svg="http://www.w3.org/2000/svg"
   xmlns="http://www.w3.org/2000/svg"
   xmlns:sodipodi="http://sodipodi.sourceforge.net/DTD/sodipodi-0.dtd"
   viewBox="0 0 100 125"
   width="100%"
   height="100%"
   id="svg3114"
   version="1.1"
   sodipodi:docname="mouts.svg">
  <defs
     id="defs3116" />
  <sodipodi:namedview
     id="base"
     pagecolor="#ffffff"
     bordercolor="#666666"
     borderopacity="1.0"
     showgrid="false"
     showguides="true"
     fit-margin-top="0"
     fit-margin-left="0"
     fit-margin-right="0"
     fit-margin-bottom="0"/>
  <metadata
     id="metadata3119">
  </metadata>
  <g
     id="layer1"
     transform="translate(-0.03995158,1.2985379)" />
  <g
     id="layer4">
    <g
       transform="matrix(0.9991714,0,0,1.0108298,-332.9774,-401.30716)"
       id="g15">
      <path
         d="m 349.429,459.449 c 2.94,0 5.322,2.381 5.322,5.325 0,2.937 -2.382,5.322 -5.322,5.322 -2.94,0 -5.326,-2.386 -5.326,-5.322 10e-4,-2.944 2.386,-5.325 5.326,-5.325 z"
         id="path17" />
      <path
         d="m 347.299,476.487 c 2.94,0 5.322,2.386 5.322,5.325 0,2.94 -2.381,5.322 -5.322,5.322 -2.941,0 -5.326,-2.382 -5.326,-5.322 0,-2.939 2.385,-5.325 5.326,-5.325 z"
         id="path19" />
      <path
         d="m 367.747,456.89 c 2.94,0 5.326,2.386 5.326,5.325 0,2.944 -2.385,5.326 -5.326,5.326 -2.944,0 -5.326,-2.382 -5.326,-5.326 0,-2.94 2.382,-5.325 5.326,-5.325 z"
         id="path21" />
      <path
         d="m 364.337,471.376 c 2.944,0 5.326,2.386 5.326,5.322 0,2.943 -2.382,5.325 -5.326,5.325 -2.94,0 -5.325,-2.382 -5.325,-5.325 0,-2.936 2.385,-5.322 5.325,-5.322 z"
         id="path23" />
      <path
         d="m 384.786,464.56 c 2.94,0 5.326,2.382 5.326,5.326 0,2.937 -2.386,5.325 -5.326,5.325 -2.94,0 -5.322,-2.389 -5.322,-5.325 0,-2.945 2.381,-5.326 5.322,-5.326 z"
         id="path25" />
      <path
         d="m 398.418,454.338 c 2.94,0 5.325,2.382 5.325,5.321 0,2.94 -2.385,5.326 -5.325,5.326 -2.94,0 -5.322,-2.386 -5.322,-5.326 0,-2.939 2.382,-5.321 5.322,-5.321 z"
         id="path27" />
      <path
         d="m 401.828,471.376 c 2.94,0 5.322,2.386 5.322,5.322 0,2.943 -2.381,5.325 -5.322,5.325 -2.94,0 -5.326,-2.382 -5.326,-5.325 0,-2.936 2.386,-5.322 5.326,-5.322 z"
         id="path29" />
      <path
         d="m 415.456,457.744 c 2.944,0 5.326,2.385 5.326,5.321 0,2.944 -2.381,5.326 -5.326,5.326 -2.937,0 -5.322,-2.382 -5.322,-5.326 0,-2.936 2.386,-5.321 5.322,-5.321 z"
         id="path31" />
      <path
         d="m 419.295,474.782 c 2.937,0 5.322,2.386 5.322,5.325 0,2.94 -2.386,5.326 -5.322,5.326 -2.944,0 -5.325,-2.386 -5.325,-5.326 0,-2.939 2.381,-5.325 5.325,-5.325 z"
         id="path33" />
      <path
         d="m 391.483,483.06 c 2.937,0 5.322,2.385 5.322,5.325 0,2.94 -2.385,5.326 -5.322,5.326 -2.944,0 -5.326,-2.386 -5.326,-5.326 0,-2.94 2.383,-5.325 5.326,-5.325 z"
         id="path35" />
      <path
         d="m 375.414,488.902 c 2.94,0 5.325,2.382 5.325,5.326 0,2.939 -2.385,5.325 -5.325,5.325 -2.94,0 -5.322,-2.386 -5.322,-5.325 0,-2.944 2.382,-5.326 5.322,-5.326 z"
         id="path37" />
    </g>
  </g>
  <g
     id="layer3">
    <path
       d="M 9.250004,0.08929 C 4.1400829,0.08929 3.95e-6,4.486507 3.95e-6,9.901789 l 0,83.812498 c 0,5.41631 4.14007895,9.812513 9.25000005,9.812513 l 15.875,-0.0625 9.8125,21.625 5.09375,0 -12.25,-26.625013 -13.15625,0 c -4.7702089,0 -8.65625,-4.38648 -8.65625,-9.8125 l 0,-38.124996 88.906245,0 0,38.124996 c 0,5.42712 -3.85479,9.81251 -8.625,9.8125 l -14.375,0 -11.875,26.625013 4.90625,0 9.46875,-21.625 16.375,0.0625 c 5.10989,0.0172 9.249997,-4.396203 9.249997,-9.812513 l 0,-83.812498 c 0,-5.414254 -4.141047,-9.812499 -9.249997,-9.812499 L 55.982139,0 l 0,20.089291 9.01786,0 -14.999996,15.089286 -14.999999,-15.089286 9.017857,0 0,-20.00000502 z"
       id="path11"
       style="fill:#000000;fill-opacity:1;stroke:none"
       sodipodi:nodetypes="ssscccccssccsscccccssscccccccs" />
  </g>
</svg>
