<?xml version="1.0" encoding="UTF-8" standalone="no"?>

<svg
   xmlns:dc="http://purl.org/dc/elements/1.1/"
   xmlns:cc="http://creativecommons.org/ns#"
   xmlns:rdf="http://www.w3.org/1999/02/22-rdf-syntax-ns#"
   xmlns:svg="http://www.w3.org/2000/svg"
   xmlns="http://www.w3.org/2000/svg"
   xmlns:sodipodi="http://sodipodi.sourceforge.net/DTD/sodipodi-0.dtd"
   xmlns:inkscape="http://www.inkscape.org/namespaces/inkscape"
   version="1.1"
   id="Calque_1"
   x="0px"
   y="0px"
   width="150px"
   height="150px"
   viewBox="0 0 150 150"
   enable-background="new 0 0 150 150"
   xml:space="preserve"
   inkscape:version="0.91 r"
   sodipodi:docname="msgaide.svg"><metadata
     id="metadata3402"><rdf:RDF><cc:Work
         rdf:about=""><dc:format>image/svg+xml</dc:format><dc:type
           rdf:resource="http://purl.org/dc/dcmitype/StillImage" /><dc:title></dc:title><cc:license
           rdf:resource="http://scripts.sil.org/OFL" /></cc:Work><cc:License
         rdf:about="http://scripts.sil.org/OFL"><cc:permits
           rdf:resource="http://scripts.sil.org/pub/OFL/Reproduction" /><cc:permits
           rdf:resource="http://scripts.sil.org/pub/OFL/Distribution" /><cc:permits
           rdf:resource="http://scripts.sil.org/pub/OFL/Embedding" /><cc:permits
           rdf:resource="http://scripts.sil.org/pub/OFL/DerivativeWorks" /><cc:requires
           rdf:resource="http://scripts.sil.org/pub/OFL/Notice" /><cc:requires
           rdf:resource="http://scripts.sil.org/pub/OFL/Attribution" /><cc:requires
           rdf:resource="http://scripts.sil.org/pub/OFL/ShareAlike" /><cc:requires
           rdf:resource="http://scripts.sil.org/pub/OFL/DerivativeRenaming" /><cc:requires
           rdf:resource="http://scripts.sil.org/pub/OFL/BundlingWhenSelling" /></cc:License></rdf:RDF></metadata><defs
     id="defs3400" /><sodipodi:namedview
     pagecolor="#ffffff"
     bordercolor="#666666"
     borderopacity="1"
     objecttolerance="10"
     gridtolerance="10"
     guidetolerance="10"
     inkscape:pageopacity="0"
     inkscape:pageshadow="2"
     inkscape:window-width="1855"
     inkscape:window-height="1056"
     id="namedview3398"
     showgrid="false"
     inkscape:zoom="11.26"
     inkscape:cx="75"
     inkscape:cy="75"
     inkscape:window-x="65"
     inkscape:window-y="24"
     inkscape:window-maximized="1"
     inkscape:current-layer="Calque_1" /><g
     id="g3390"><path
       d="M74.635,14.382c-38.331,0-69.402,23.409-69.405,52.283c0,13.217,6.526,25.282,17.266,34.489L6.278,133.587   c-0.683,1.366-0.125,1.925,1.242,1.241l40.061-20.003c8.314,2.654,17.456,4.121,27.052,4.121c38.335,0,69.406-23.405,69.406-52.285   C144.042,37.791,112.968,14.382,74.635,14.382z M115.358,92.548c-10.717,8.071-25.178,12.518-40.726,12.518   c-15.543,0-30.005-4.446-40.723-12.52c-9.543-7.19-14.798-16.382-14.798-25.88c0.001-9.501,5.257-18.695,14.801-25.883   c10.717-8.074,25.178-12.52,40.722-12.52c15.545,0,30.009,4.446,40.726,12.52c9.543,7.188,14.797,16.379,14.797,25.879   C130.158,76.166,124.901,85.358,115.358,92.548z"
       id="path3392" /><path
       d="M74.444,82.986c-3.503,0-6.172,2.752-6.172,6.504c0,3.755,2.669,6.504,6.172,6.504c3.501,0,6.253-2.749,6.253-6.504   C80.697,85.738,77.945,82.986,74.444,82.986z"
       id="path3394" /><path
       d="M75.027,37.255c-5.81,0-11.084,2.616-15.256,7.563c0,0-0.119,0.144-0.268,0.318c-0.146,0.175-0.076,0.492,0.157,0.707   l5.741,5.292c0.234,0.217,0.557,0.25,0.72,0.07l0.293-0.325c2.505-2.764,5.029-4.052,7.946-4.052c3.685,0,5.887,2.17,5.887,5.803   c0,2.841-2.088,5.326-4.504,8.207c-3.508,4.176-7.48,8.91-6.411,16.349c0,0,0.023,0.168,0.053,0.371   c0.03,0.206,0.312,0.374,0.632,0.374h8.985c0.32,0,0.554-0.214,0.523-0.479l-0.051-0.483c-0.562-5.181,2.426-8.646,5.59-12.313   c3.077-3.565,6.257-7.252,6.257-12.693C91.321,42.892,85.078,37.255,75.027,37.255z"
       id="path3396" /></g></svg>