<?xml version="1.0" encoding="UTF-8" standalone="no"?>
<!-- Created with Inkscape (http://www.inkscape.org/) -->

<svg
   xmlns:dc="http://purl.org/dc/elements/1.1/"
   xmlns:cc="http://creativecommons.org/ns#"
   xmlns:rdf="http://www.w3.org/1999/02/22-rdf-syntax-ns#"
   xmlns:svg="http://www.w3.org/2000/svg"
   xmlns="http://www.w3.org/2000/svg"
   xmlns:sodipodi="http://sodipodi.sourceforge.net/DTD/sodipodi-0.dtd"
   viewBox="0 0 100 125"
   width="100%"
   height="100%"
   id="svg3114"
   version="1.1"
   sodipodi:docname="vrac.svg">
  <defs
     id="defs3116" />
  <sodipodi:namedview
     id="base"
     pagecolor="#ffffff"
     bordercolor="#666666"
     borderopacity="1.0"
     showgrid="false"
     showguides="true"
     fit-margin-top="0"
     fit-margin-left="0"
     fit-margin-right="0"
     fit-margin-bottom="0">
    <sodipodi:guide
       orientation="0,1"
       position="9.6280165,0"
       id="guide3322" />
  </sodipodi:namedview>
  <metadata
     id="metadata3119">
  </metadata>
  <g
     id="layer1"
     transform="translate(-0.03995158,1.2985379)">
    <path
       d="M 41.625 9.4375 C 20.661941 9.4375 2.9363158 25.704647 2.9375 45.3125 C 2.979683 67.878915 2.900708 92.392358 2.90625 114.09375 C 2.9053027 119.31483 5.5057583 124.96556 13.59375 124.96875 L 25.46875 125 L 25.4375 120.65625 C 25.4375 120.65625 14.015124 121.66822 10.4375 118.0625 C 7.114879 114.71379 8.0506849 104.40022 8.09375 103.9375 L 93.21875 103.9375 C 93.26956 104.48813 94.182528 114.729 90.875 118.0625 C 87.297376 121.66822 75.875 120.625 75.875 120.625 L 75.84375 124.96875 L 87.71875 124.9375 C 95.806741 124.9345 98.407197 119.28358 98.40625 114.0625 L 98.40625 103.9375 L 98.40625 45.3125 C 98.40625 25.704647 82.119309 9.4375 61.15625 9.4375 L 41.625 9.4375 z M 35.53125 17.75 C 35.53125 17.75 14.779303 30.856525 15.375 46.625 L 12.53125 46.625 C 12.53125 46.625 13.751033 24.726456 35.53125 17.75 z M 12.53125 54.3125 L 15.09375 54.3125 L 15.09375 96.71875 L 12.53125 96.71875 L 12.53125 54.3125 z M 50 64.125 C 56.565686 64.125 61.875 69.108769 61.875 75.25 C 61.875 81.391231 56.565686 86.34375 50 86.34375 C 43.439052 86.34375 38.125 81.391231 38.125 75.25 C 38.125 69.108769 43.439052 64.125 50 64.125 z "
       transform="translate(0.03995158,-1.2985379)"
       id="path41" />
    <path
       sodipodi:nodetypes="cccccc"
       id="path61"
       d="m 42.78151,-1.2938111 c 5.043498,0.018167 10.090478,-0.036666 15.131797,0.02725 3.405215,0.83704185 5.762419,3.8116509 6.976373,6.3342303 -9.89982,0 -19.799628,0 -29.699448,0 1.430157,-2.4167362 3.221319,-4.90468813 6.007093,-6.0689743 0.535594,-0.2104457 1.112519,-0.2308168 1.584185,-0.2925061 z" />
  </g>
</svg>
