<svg xmlns="http://www.w3.org/2000/svg" xml:space="preserve" height="803.96" viewBox="0 0 798.66669 803.96002" width="798.67" version="1.1"><defs><clipPath id="clipPath18" clipPathUnits="userSpaceOnUse"><path d="m0 602.97h599v-602.97h-599z"/></clipPath><clipPath id="clipPath26" clipPathUnits="userSpaceOnUse"><path d="m-542.11 775.69c0-51.783 41.979-93.759 93.761-93.759s93.759 41.976 93.759 93.759c0 51.784-41.977 93.76-93.759 93.76s-93.761-41.976-93.761-93.76"/></clipPath><clipPath id="clipPath34" clipPathUnits="userSpaceOnUse"><path d="m-53.6 164.77h200.8v310.4h-200.8z"/></clipPath><clipPath id="clipPath42" clipPathUnits="userSpaceOnUse"><path d="m-53.6 164.77h200.8v310.4h-200.8z"/></clipPath><clipPath id="clipPath50" clipPathUnits="userSpaceOnUse"><path d="m-53.6 164.77h200.8v310.4h-200.8z"/></clipPath><clipPath id="clipPath64" clipPathUnits="userSpaceOnUse"><path d="m0 602.97h599v-602.97h-599z"/></clipPath><clipPath id="clipPath72" clipPathUnits="userSpaceOnUse"><path d="m206.75 956.12c0-51.783 41.977-93.76 93.76-93.76s93.759 41.977 93.759 93.76-41.976 93.76-93.759 93.76-93.76-41.977-93.76-93.76"/></clipPath><clipPath id="clipPath136" clipPathUnits="userSpaceOnUse"><path d="m0 602.97h599v-602.97h-599z"/></clipPath><clipPath id="clipPath144" clipPathUnits="userSpaceOnUse"><path d="m-390.62 1117.3c0-51.783 41.978-93.76 93.76-93.76 51.783 0 93.76 41.977 93.76 93.76s-41.977 93.76-93.76 93.76c-51.782 0-93.76-41.977-93.76-93.76"/></clipPath><clipPath id="clipPath152" clipPathUnits="userSpaceOnUse"><path d="m97.884 506.36h200.8v310.4h-200.8z"/></clipPath><clipPath id="clipPath160" clipPathUnits="userSpaceOnUse"><path d="m97.884 506.36h200.8v310.4h-200.8z"/></clipPath><clipPath id="clipPath168" clipPathUnits="userSpaceOnUse"><path d="m97.884 506.36h200.8v310.4h-200.8z"/></clipPath><clipPath id="clipPath182" clipPathUnits="userSpaceOnUse"><path d="m0 602.97h599v-602.97h-599z"/></clipPath><clipPath id="clipPath190" clipPathUnits="userSpaceOnUse"><path d="m-675.02 1123.5c0-51.783 41.978-93.76 93.76-93.76 51.783 0 93.76 41.977 93.76 93.76s-41.977 93.76-93.76 93.76c-51.782 0-93.76-41.977-93.76-93.76"/></clipPath><clipPath id="clipPath198" clipPathUnits="userSpaceOnUse"><path d="m-186.51 512.57h200.8v310.4h-200.8z"/></clipPath><clipPath id="clipPath206" clipPathUnits="userSpaceOnUse"><path d="m-186.51 512.57h200.8v310.4h-200.8z"/></clipPath><clipPath id="clipPath214" clipPathUnits="userSpaceOnUse"><path d="m-186.51 512.57h200.8v310.4h-200.8z"/></clipPath><clipPath id="clipPath228" clipPathUnits="userSpaceOnUse"><path d="m54.34 301.97c0-135.93 110.2-246.12 246.12-246.12 135.93 0 246.12 110.19 246.12 246.12s-110.19 246.12-246.12 246.12c-135.92 0-246.12-110.19-246.12-246.12"/></clipPath><clipPath id="clipPath570" clipPathUnits="userSpaceOnUse"><path d="m0 602.97h599v-602.97h-599z"/></clipPath></defs><g transform="matrix(1.3333 0 0 -1.3333 0 803.96)"><g clip-path="url(#clipPath18)"><g clip-path="url(#clipPath26)"><g clip-path="url(#clipPath34)"><g clip-path="url(#clipPath42)"><g clip-path="url(#clipPath50)"/></g></g></g></g><g clip-path="url(#clipPath64)"><g clip-path="url(#clipPath72)"><g transform="translate(331.58 575.46)"><path style="fill:#49690f" d="m0 0c-8.071 0-19.476-0.143-25.356 3.543-2.129 1.332-2.049 5.238-2.049 5.238s0.14 57.506 0.205 69.053c0.076 11.542 0.85 14.017 2.411 20.892 2.285 10.075 11.972 37.249 13.314 42.844 1.346 5.59 2.338 20.118 2.338 20.118s0.472 27.042 0.472 27.367c0 0.33-0.686 1.053-0.686 1.053s-0.107 5.249 0.039 5.755c0.143 0.508 0.686 1.485 0.686 1.485s-0.183 1.591 0.615 2.857c0.795 1.268 7.709 1.268 7.709 1.268h2.54s6.917 0 7.713-1.268c0.795-1.266 0.613-2.857 0.613-2.857s0.544-0.977 0.684-1.485c0.15-0.506 0.043-5.755 0.043-5.755s-0.686-0.723-0.686-1.053c0-0.325 0.46-27.367 0.46-27.367s1-14.528 2.343-20.118c1.349-5.595 11.028-32.769 13.317-42.844 1.556-6.875 2.332-9.35 2.404-20.892 0.072-11.547 0.215-69.053 0.215-69.053s0.077-3.906-2.055-5.238c-5.878-3.683-17.277-3.54-25.351-3.54z"/></g><g transform="translate(331.58 575.46)"><path style="stroke:#838906;stroke-miterlimit:10;stroke-width:.977;fill:none" d="m0 0c-8.071 0-19.476-0.143-25.356 3.543-2.129 1.332-2.049 5.238-2.049 5.238s0.14 57.506 0.205 69.053c0.076 11.542 0.85 14.017 2.411 20.892 2.285 10.075 11.972 37.249 13.314 42.844 1.346 5.59 2.338 20.118 2.338 20.118s0.472 27.042 0.472 27.367c0 0.33-0.686 1.053-0.686 1.053s-0.107 5.249 0.039 5.755c0.143 0.508 0.686 1.485 0.686 1.485s-0.183 1.591 0.615 2.857c0.795 1.268 7.709 1.268 7.709 1.268h2.54s6.917 0 7.713-1.268c0.795-1.266 0.613-2.857 0.613-2.857s0.544-0.977 0.684-1.485c0.15-0.506 0.043-5.755 0.043-5.755s-0.686-0.723-0.686-1.053c0-0.325 0.46-27.367 0.46-27.367s1-14.528 2.343-20.118c1.349-5.595 11.028-32.769 13.317-42.844 1.556-6.875 2.332-9.35 2.404-20.892 0.072-11.547 0.215-69.053 0.215-69.053s0.077-3.906-2.055-5.238c-5.878-3.683-17.277-3.54-25.351-3.54z"/></g><g transform="translate(183.89 738.82)"><path style="fill:#49690f" d="m0 0c-6.455 0-15.58 0.11-20.281-2.835-1.701-1.068-1.646-4.192-1.646-4.192s0.113-46.004 0.174-55.241c0.054-9.232 0.679-11.216 1.929-16.71 1.823-8.062 9.57-29.799 10.646-34.277s1.874-16.099 1.874-16.099 0.374-21.632 0.374-21.892c0-0.264-0.549-0.842-0.549-0.842s-0.089-4.197 0.03-4.601c0.115-0.408 0.551-1.192 0.551-1.192s-0.146-1.269 0.489-2.283c0.638-1.014 6.17-1.014 6.17-1.014h2.032s5.529 0 6.171 1.014c0.632 1.014 0.488 2.283 0.488 2.283s0.437 0.784 0.552 1.192c0.113 0.404 0.027 4.601 0.027 4.601s-0.549 0.578-0.549 0.842c0 0.26 0.376 21.892 0.376 21.892s0.794 11.621 1.87 16.099c1.08 4.478 8.824 26.215 10.655 34.277 1.241 5.494 1.867 7.478 1.923 16.71 0.057 9.237 0.168 55.241 0.168 55.241s0.061 3.124-1.64 4.192c-4.703 2.94-13.824 2.83-20.285 2.83z"/></g><g transform="translate(183.89 738.82)"><path style="stroke:#838906;stroke-miterlimit:10;stroke-width:.977;fill:none" d="m0 0c-6.455 0-15.58 0.11-20.281-2.835-1.701-1.068-1.646-4.192-1.646-4.192s0.113-46.004 0.174-55.241c0.054-9.232 0.679-11.216 1.929-16.71 1.823-8.062 9.57-29.799 10.646-34.277s1.874-16.099 1.874-16.099 0.374-21.632 0.374-21.892c0-0.264-0.549-0.842-0.549-0.842s-0.089-4.197 0.03-4.601c0.115-0.408 0.551-1.192 0.551-1.192s-0.146-1.269 0.489-2.283c0.638-1.014 6.17-1.014 6.17-1.014h2.032s5.529 0 6.171 1.014c0.632 1.014 0.488 2.283 0.488 2.283s0.437 0.784 0.552 1.192c0.113 0.404 0.027 4.601 0.027 4.601s-0.549 0.578-0.549 0.842c0 0.26 0.376 21.892 0.376 21.892s0.794 11.621 1.87 16.099c1.08 4.478 8.824 26.215 10.655 34.277 1.241 5.494 1.867 7.478 1.923 16.71 0.057 9.237 0.168 55.241 0.168 55.241s0.061 3.124-1.64 4.192c-4.703 2.94-13.824 2.83-20.285 2.83z"/></g><g transform="translate(283.35 737.55)"><path style="fill:#49690f" d="m0 0c-6.459 0-15.582 0.112-20.284-2.833-1.704-1.068-1.644-4.193-1.644-4.193s0.113-46.004 0.169-55.24c0.058-9.232 0.684-11.217 1.926-16.712 1.83-8.059 9.575-29.8 10.652-34.274 1.077-4.479 1.871-16.099 1.871-16.099s0.376-21.634 0.376-21.894c0-0.262-0.548-0.84-0.548-0.84s-0.09-4.197 0.03-4.605c0.112-0.405 0.552-1.191 0.552-1.191s-0.147-1.268 0.492-2.282c0.635-1.014 6.166-1.014 6.166-1.014h2.031s5.531 0 6.17 1.014c0.636 1.014 0.49 2.282 0.49 2.282s0.437 0.786 0.554 1.191c0.116 0.408 0.026 4.605 0.026 4.605s-0.549 0.578-0.549 0.84c0 0.26 0.374 21.894 0.374 21.894s0.792 11.62 1.873 16.099c1.078 4.474 8.823 26.215 10.65 34.274 1.249 5.495 1.866 7.48 1.926 16.712 0.057 9.236 0.17 55.24 0.17 55.24s0.061 3.125-1.641 4.193c-4.703 2.932-13.824 2.82-20.281 2.82z"/></g><g transform="translate(283.35 737.55)"><path style="stroke:#838906;stroke-miterlimit:10;stroke-width:.977;fill:none" d="m0 0c-6.459 0-15.582 0.112-20.284-2.833-1.704-1.068-1.644-4.193-1.644-4.193s0.113-46.004 0.169-55.24c0.058-9.232 0.684-11.217 1.926-16.712 1.83-8.059 9.575-29.8 10.652-34.274 1.077-4.479 1.871-16.099 1.871-16.099s0.376-21.634 0.376-21.894c0-0.262-0.548-0.84-0.548-0.84s-0.09-4.197 0.03-4.605c0.112-0.405 0.552-1.191 0.552-1.191s-0.147-1.268 0.492-2.282c0.635-1.014 6.166-1.014 6.166-1.014h2.031s5.531 0 6.17 1.014c0.636 1.014 0.49 2.282 0.49 2.282s0.437 0.786 0.554 1.191c0.116 0.408 0.026 4.605 0.026 4.605s-0.549 0.578-0.549 0.84c0 0.26 0.374 21.894 0.374 21.894s0.792 11.62 1.873 16.099c1.078 4.474 8.823 26.215 10.65 34.274 1.249 5.495 1.866 7.48 1.926 16.712 0.057 9.236 0.17 55.24 0.17 55.24s0.061 3.125-1.641 4.193c-4.703 2.932-13.824 2.82-20.281 2.82z"/></g><g transform="translate(135.72 575.46)"><path style="fill:#49690f" d="m0 0c-8.073 0-19.473-0.143-25.349 3.543-2.134 1.332-2.058 5.238-2.058 5.238s0.144 57.506 0.215 69.053c0.074 11.542 0.851 14.017 2.409 20.892 2.282 10.075 11.966 37.249 13.313 42.844 1.35 5.59 2.336 20.118 2.336 20.118s0.474 27.042 0.474 27.367c0 0.33-0.69 1.053-0.69 1.053s-0.111 5.249 0.038 5.755c0.145 0.508 0.689 1.485 0.689 1.485s-0.183 1.591 0.611 2.857c0.798 1.268 7.714 1.268 7.714 1.268h2.539s6.914 0 7.712-1.268c0.796-1.266 0.613-2.857 0.613-2.857s0.547-0.977 0.686-1.485c0.145-0.506 0.039-5.755 0.039-5.755s-0.687-0.723-0.687-1.053c0-0.325 0.472-27.367 0.472-27.367s0.993-14.528 2.335-20.118c1.348-5.595 11.029-32.769 13.315-42.844 1.56-6.875 2.338-9.35 2.407-20.892 0.072-11.547 0.214-69.053 0.214-69.053s0.077-3.906-2.057-5.238c-5.874-3.683-17.275-3.54-25.353-3.54z"/></g><g transform="translate(135.72 575.46)"><path style="stroke:#838906;stroke-miterlimit:10;stroke-width:.977;fill:none" d="m0 0c-8.073 0-19.473-0.143-25.349 3.543-2.134 1.332-2.058 5.238-2.058 5.238s0.144 57.506 0.215 69.053c0.074 11.542 0.851 14.017 2.409 20.892 2.282 10.075 11.966 37.249 13.313 42.844 1.35 5.59 2.336 20.118 2.336 20.118s0.474 27.042 0.474 27.367c0 0.33-0.69 1.053-0.69 1.053s-0.111 5.249 0.038 5.755c0.145 0.508 0.689 1.485 0.689 1.485s-0.183 1.591 0.611 2.857c0.798 1.268 7.714 1.268 7.714 1.268h2.539s6.914 0 7.712-1.268c0.796-1.266 0.613-2.857 0.613-2.857s0.547-0.977 0.686-1.485c0.145-0.506 0.039-5.755 0.039-5.755s-0.687-0.723-0.687-1.053c0-0.325 0.472-27.367 0.472-27.367s0.993-14.528 2.335-20.118c1.348-5.595 11.029-32.769 13.315-42.844 1.56-6.875 2.338-9.35 2.407-20.892 0.072-11.547 0.214-69.053 0.214-69.053s0.077-3.906-2.057-5.238c-5.874-3.683-17.275-3.54-25.353-3.54z"/></g><g transform="translate(233.65 575.46)"><path style="fill:#49690f" d="m0 0c-8.072 0-19.478-0.143-25.355 3.543-2.131 1.332-2.055 5.238-2.055 5.238s0.141 57.506 0.213 69.053c0.069 11.542 0.846 14.017 2.407 20.892 2.285 10.075 11.972 37.249 13.315 42.844 1.345 5.59 2.34 20.118 2.34 20.118s0.468 27.042 0.468 27.367c0 0.33-0.687 1.053-0.687 1.053s-0.108 5.249 0.039 5.755c0.143 0.508 0.688 1.485 0.688 1.485s-0.184 1.591 0.615 2.857c0.795 1.268 7.709 1.268 7.709 1.268h2.54s6.913 0 7.711-1.268c0.794-1.266 0.614-2.857 0.614-2.857s0.545-0.977 0.689-1.485c0.146-0.506 0.035-5.755 0.035-5.755s-0.692-0.723-0.692-1.053c0-0.325 0.474-27.367 0.474-27.367s0.996-14.528 2.338-20.118c1.348-5.595 11.032-32.769 13.318-42.844 1.552-6.875 2.334-9.35 2.404-20.892 0.071-11.547 0.214-69.053 0.214-69.053s0.076-3.906-2.055-5.238c-5.877-3.683-17.277-3.54-25.349-3.54z"/></g><g transform="translate(233.65 575.46)"><path style="stroke:#838906;stroke-miterlimit:10;stroke-width:.977;fill:none" d="m0 0c-8.072 0-19.478-0.143-25.355 3.543-2.131 1.332-2.055 5.238-2.055 5.238s0.141 57.506 0.213 69.053c0.069 11.542 0.846 14.017 2.407 20.892 2.285 10.075 11.972 37.249 13.315 42.844 1.345 5.59 2.34 20.118 2.34 20.118s0.468 27.042 0.468 27.367c0 0.33-0.687 1.053-0.687 1.053s-0.108 5.249 0.039 5.755c0.143 0.508 0.688 1.485 0.688 1.485s-0.184 1.591 0.615 2.857c0.795 1.268 7.709 1.268 7.709 1.268h2.54s6.913 0 7.711-1.268c0.794-1.266 0.614-2.857 0.614-2.857s0.545-0.977 0.689-1.485c0.146-0.506 0.035-5.755 0.035-5.755s-0.692-0.723-0.692-1.053c0-0.325 0.474-27.367 0.474-27.367s0.996-14.528 2.338-20.118c1.348-5.595 11.032-32.769 13.318-42.844 1.552-6.875 2.334-9.35 2.404-20.892 0.071-11.547 0.214-69.053 0.214-69.053s0.076-3.906-2.055-5.238c-5.877-3.683-17.277-3.54-25.349-3.54z"/></g><g transform="translate(84.404 738.82)"><path style="fill:#49690f" d="m0 0c-6.46 0-15.586 0.114-20.285-2.83-1.702-1.068-1.646-4.197-1.646-4.197s0.115-46.003 0.176-55.237c0.052-9.236 0.675-11.219 1.926-16.713 1.825-8.06 9.57-29.799 10.651-34.275 1.075-4.477 1.868-16.102 1.868-16.102s0.376-21.632 0.376-21.892c0-0.264-0.55-0.842-0.55-0.842s-0.084-4.197 0.031-4.6c0.117-0.408 0.551-1.191 0.551-1.191s-0.144-1.271 0.489-2.285c0.64-1.011 6.171-1.011 6.171-1.011h2.031s5.529 0 6.17 1.011c0.635 1.014 0.49 2.285 0.49 2.285s0.44 0.783 0.549 1.191c0.119 0.403 0.03 4.6 0.03 4.6s-0.549 0.578-0.549 0.842c0 0.26 0.374 21.892 0.374 21.892s0.793 11.625 1.87 16.102c1.082 4.476 8.827 26.215 10.654 34.275 1.244 5.494 1.87 7.477 1.927 16.713 0.058 9.234 0.172 55.237 0.172 55.237s0.061 3.129-1.645 4.197c-4.703 2.934-13.824 2.82-20.282 2.82z"/></g><g transform="translate(84.404 738.82)"><path style="stroke:#838906;stroke-miterlimit:10;stroke-width:.977;fill:none" d="m0 0c-6.46 0-15.586 0.114-20.285-2.83-1.702-1.068-1.646-4.197-1.646-4.197s0.115-46.003 0.176-55.237c0.052-9.236 0.675-11.219 1.926-16.713 1.825-8.06 9.57-29.799 10.651-34.275 1.075-4.477 1.868-16.102 1.868-16.102s0.376-21.632 0.376-21.892c0-0.264-0.55-0.842-0.55-0.842s-0.084-4.197 0.031-4.6c0.117-0.408 0.551-1.191 0.551-1.191s-0.144-1.271 0.489-2.285c0.64-1.011 6.171-1.011 6.171-1.011h2.031s5.529 0 6.17 1.011c0.635 1.014 0.49 2.285 0.49 2.285s0.44 0.783 0.549 1.191c0.119 0.403 0.03 4.6 0.03 4.6s-0.549 0.578-0.549 0.842c0 0.26 0.374 21.892 0.374 21.892s0.793 11.625 1.87 16.102c1.082 4.476 8.827 26.215 10.654 34.275 1.244 5.494 1.87 7.477 1.927 16.713 0.058 9.234 0.172 55.237 0.172 55.237s0.061 3.129-1.645 4.197c-4.703 2.934-13.824 2.82-20.282 2.82z"/></g><g transform="translate(38.113 575.45)"><path style="fill:#49690f" d="m0 0c-8.072 0-19.473-0.138-25.354 3.545-2.129 1.333-2.051 5.239-2.051 5.239s0.141 57.505 0.212 69.045c0.07 11.547 0.852 14.024 2.409 20.896 2.284 10.077 11.97 37.251 13.313 42.846 1.346 5.594 2.337 20.121 2.337 20.121s0.474 27.042 0.474 27.365c0 0.328-0.69 1.051-0.69 1.051s-0.107 5.249 0.038 5.758c0.146 0.506 0.689 1.483 0.689 1.483s-0.182 1.595 0.611 2.861c0.799 1.268 7.719 1.268 7.719 1.268h2.534s6.914 0 7.711-1.268c0.797-1.266 0.619-2.861 0.619-2.861s0.54-0.977 0.681-1.483c0.145-0.509 0.039-5.758 0.039-5.758s-0.687-0.723-0.687-1.051c0-0.323 0.471-27.365 0.471-27.365s0.992-14.527 2.337-20.121c1.348-5.595 11.028-32.769 13.317-42.846 1.558-6.872 2.335-9.349 2.406-20.896 0.069-11.54 0.213-69.045 0.213-69.045s0.076-3.906-2.058-5.239c-5.87-3.678-17.276-3.54-25.352-3.54z"/></g><g transform="translate(38.113 575.45)"><path style="stroke:#838906;stroke-miterlimit:10;stroke-width:.977;fill:none" d="m0 0c-8.072 0-19.473-0.138-25.354 3.545-2.129 1.333-2.051 5.239-2.051 5.239s0.141 57.505 0.212 69.045c0.07 11.547 0.852 14.024 2.409 20.896 2.284 10.077 11.97 37.251 13.313 42.846 1.346 5.594 2.337 20.121 2.337 20.121s0.474 27.042 0.474 27.365c0 0.328-0.69 1.051-0.69 1.051s-0.107 5.249 0.038 5.758c0.146 0.506 0.689 1.483 0.689 1.483s-0.182 1.595 0.611 2.861c0.799 1.268 7.719 1.268 7.719 1.268h2.534s6.914 0 7.711-1.268c0.797-1.266 0.619-2.861 0.619-2.861s0.54-0.977 0.681-1.483c0.145-0.509 0.039-5.758 0.039-5.758s-0.687-0.723-0.687-1.051c0-0.323 0.471-27.365 0.471-27.365s0.992-14.527 2.337-20.121c1.348-5.595 11.028-32.769 13.317-42.846 1.558-6.872 2.335-9.349 2.406-20.896 0.069-11.54 0.213-69.045 0.213-69.045s0.076-3.906-2.058-5.239c-5.87-3.678-17.276-3.54-25.352-3.54z"/></g></g></g><g clip-path="url(#clipPath136)"><g clip-path="url(#clipPath144)"><g clip-path="url(#clipPath152)"><g clip-path="url(#clipPath160)"><g clip-path="url(#clipPath168)"/></g></g></g></g><g clip-path="url(#clipPath182)"><g clip-path="url(#clipPath190)"><g clip-path="url(#clipPath198)"><g clip-path="url(#clipPath206)"><g clip-path="url(#clipPath214)"/></g></g></g></g><g clip-path="url(#clipPath228)"><g transform="translate(608.7 301.97)"><path d="m0 0c0-158.5-138-287-308.24-287-170.23 0-308.24 128.5-308.24 287 0 158.51 138 287 308.24 287s308.24-128.49 308.24-287" style="fill:#8faf6e"/></g><g transform="translate(170.71 143.19)"><path d="m0 0c-0.414 0-0.824 0-1.23 0.002h-4.848c-10.858 0.019-25.703-0.015-33.653 4.961-3.401 2.129-3.391 7.571-3.38 8.184 0 0 0.194 77.268 0.287 92.781 0.088 14.49 0.999 18.461 2.817 26.373l0.453 1.991c1.83 8.067 7.213 24.384 11.536 37.494 3.025 9.167 5.636 17.083 6.364 20.107 1.761 7.327 3.094 26.63 3.107 26.828 0.207 11.887 0.593 34.136 0.629 36.493-0.11 0.177-0.354 0.482-0.565 0.708l-0.347 0.369-0.013 0.504c-0.095 4.813-0.063 7.541 0.097 8.115 0.174 0.597 0.6 1.444 0.859 1.932-0.029 0.837 0.045 2.654 1.046 4.249 1.204 1.916 6.905 2.32 11.479 2.32h3.41c4.571 0 10.272-0.404 11.475-2.317 1.008-1.596 1.081-3.417 1.051-4.254 0.258-0.488 0.681-1.335 0.849-1.926 0.166-0.567 0.201-3.304 0.102-8.119l-0.009-0.502-0.347-0.369c-0.212-0.226-0.453-0.533-0.565-0.708 0.036-2.338 0.421-24.605 0.63-36.564 0.01-0.129 1.341-19.432 3.107-26.759 0.517-2.166 2.051-6.959 3.333-10.89l-2.498-0.815c-1.948 5.993-2.961 9.309-3.388 11.091-1.815 7.54-3.121 26.459-3.175 27.261-0.028 1.551-0.635 36.426-0.635 36.869 0 0.211 0 0.817 0.933 1.926 0.057 3.071 0.064 6.388-0.027 6.923-0.09 0.307-0.521 1.165-0.791 1.653l-0.205 0.369 0.049 0.418c0 0.013 0.169 1.721-0.634 2.994-0.632 0.55-4.982 1.091-9.255 1.094h-3.41c-4.277-0.003-8.626-0.544-9.309-1.159-0.745-1.206-0.579-2.918-0.576-2.937l0.041-0.412-0.199-0.367c-0.276-0.492-0.71-1.353-0.817-1.723-0.069-0.457-0.061-3.773-0.004-6.851 0.935-1.109 0.935-1.717 0.935-1.928 0-0.443-0.606-35.318-0.633-36.804-0.057-0.867-1.364-19.786-3.177-27.328-0.754-3.126-3.381-11.09-6.423-20.311-4.307-13.06-9.667-29.308-11.468-37.254l-0.457-2c-1.775-7.724-2.664-11.6-2.75-25.799-0.093-15.514-0.287-92.794-0.287-92.796-0.021-1.276 0.324-4.787 2.147-5.929 7.311-4.576 21.689-4.537 32.261-4.561h4.849c9.13-0.006 20.451 0.005 28.275 2.73l0.865-2.479c-7.885-2.746-18.828-2.861-27.911-2.861" style="fill:#e5c84c"/></g><g transform="translate(235.23 191.05)"><path d="m0 0h-3.414c-4.573 0-10.274 0.403-11.477 2.325-1.001 1.592-1.074 3.406-1.046 4.241-0.259 0.491-0.686 1.339-0.854 1.932-0.167 0.576-0.201 3.308-0.103 8.121l0.01 0.507 0.351 0.371c0.214 0.222 0.455 0.525 0.564 0.701-0.035 2.334-0.423 24.607-0.632 36.565-0.01 0.127-1.338 19.43-3.107 26.76-0.728 3.027-3.345 10.965-6.378 20.157-4.316 13.092-9.689 29.385-11.515 37.447l-0.451 1.979c-1.817 7.913-2.727 11.882-2.822 26.375-0.092 15.519-0.285 92.802-0.285 92.802-0.012 0.593-0.021 6.04 3.38 8.162 7.938 4.98 22.715 4.998 33.593 4.961h4.952c10.809 0.006 25.663 0.017 33.597-4.963l-1.394-2.22c-7.295 4.575-21.675 4.597-32.201 4.558h-4.956c-10.487 0.03-24.898 0.017-32.199-4.56-1.825-1.141-2.17-4.738-2.147-5.907 0-0.024 0.193-77.302 0.285-92.816 0.091-14.206 0.982-18.082 2.755-25.803l0.455-1.987c1.796-7.938 7.146-24.167 11.447-37.205 3.05-9.247 5.683-17.233 6.436-20.367 1.821-7.54 3.123-26.461 3.178-27.261 0.029-1.55 0.638-36.422 0.638-36.869 0-0.216 0-0.824-0.939-1.93-0.058-3.072-0.062-6.388 0.026-6.924 0.091-0.305 0.524-1.163 0.796-1.653l0.207-0.39-0.049-0.418c0-0.013-0.168-1.721 0.632-2.992 0.629-0.552 4.979-1.095 9.253-1.095h3.414c4.272 0.002 8.62 0.543 9.303 1.162 0.748 1.206 0.582 2.915 0.582 2.933l-0.043 0.41 0.201 0.369c0.27 0.488 0.701 1.344 0.802 1.709 0.078 0.485 0.072 3.798 0.016 6.87-0.933 1.106-0.933 1.714-0.933 1.928 0 0.447 0.605 35.319 0.632 36.802 0.057 0.867 1.366 19.788 3.178 27.328 0.751 3.126 3.376 11.085 6.415 20.299 1.194 3.622 2.453 7.444 3.692 11.251l2.498-0.813c-1.241-3.82-2.502-7.64-3.697-11.27-3.022-9.156-5.63-17.066-6.356-20.087-1.76-7.328-3.097-26.633-3.109-26.829-0.205-11.894-0.589-34.16-0.625-36.498 0.108-0.174 0.35-0.479 0.561-0.703l0.347-0.369 0.012-0.505c0.098-4.813 0.064-7.547-0.105-8.127-0.164-0.587-0.588-1.435-0.847-1.926 0.027-0.835-0.048-2.649-1.051-4.245-1.201-1.918-6.902-2.321-11.473-2.321" style="fill:#e2ad45"/></g><g transform="translate(366.85 191.05)"><path d="m0 0h-3.414c-4.573 0-10.274 0.403-11.475 2.325-1.003 1.59-1.076 3.406-1.048 4.241-0.26 0.491-0.688 1.339-0.855 1.932-0.166 0.576-0.198 3.311-0.103 8.121l0.011 0.505 0.349 0.369c0.211 0.224 0.455 0.529 0.561 0.703-0.036 2.322-0.418 24.604-0.623 36.567-0.01 0.127-1.347 19.43-3.113 26.76-0.729 3.038-3.357 11.004-6.398 20.233-4.311 13.065-9.674 29.326-11.496 37.371l-0.455 1.983c-1.816 7.911-2.727 11.88-2.813 26.373-0.099 15.338-0.285 92.03-0.287 92.8-0.014 0.593-0.019 6.04 3.382 8.162l1.388-2.224c-1.823-1.141-2.168-4.738-2.145-5.907 0.002-0.795 0.188-77.48 0.287-92.816 0.084-14.202 0.975-18.078 2.748-25.799l0.453-1.991c1.797-7.925 7.137-24.117 11.428-37.13 3.063-9.283 5.707-17.3 6.46-20.442 1.818-7.54 3.129-26.461 3.184-27.261 0.029-1.55 0.627-36.422 0.627-36.869 0-0.214 0-0.822-0.932-1.928-0.056-3.074-0.062-6.392 0.028-6.928 0.091-0.303 0.522-1.161 0.796-1.651l0.207-0.369-0.049-0.42c-0.002-0.011-0.173-1.717 0.63-2.99 0.633-0.552 4.98-1.095 9.253-1.095h3.414c4.272 0.002 8.62 0.543 9.303 1.162 0.746 1.206 0.582 2.917 0.58 2.933l-0.041 0.413 0.199 0.366c0.274 0.492 0.707 1.35 0.812 1.717 0.072 0.473 0.064 3.786 0.006 6.86-0.939 1.106-0.939 1.714-0.939 1.93 0 0.447 0.611 35.319 0.636 36.802 0.059 0.867 1.37 19.788 3.178 27.328 0.755 3.132 3.388 11.111 6.436 20.35 4.303 13.045 9.659 29.282 11.46 37.222l0.467 2.049c1.761 7.706 2.645 11.574 2.729 25.741 0.099 15.336 0.285 92.021 0.287 92.794 0.021 1.277-0.325 4.79-2.142 5.929l1.394 2.224c3.392-2.122 3.388-7.569 3.373-8.184-0.002-0.748-0.188-77.44-0.287-92.778-0.086-14.458-0.99-18.418-2.795-26.313l-0.468-2.043c-1.827-8.07-7.206-24.37-11.525-37.46-3.03-9.19-5.647-17.122-6.376-20.147-1.757-7.328-3.097-26.633-3.108-26.829-0.207-11.889-0.595-34.152-0.63-36.496 0.115-0.184 0.373-0.504 0.562-0.701l0.353-0.369 0.01-0.509c0.1-4.81 0.068-7.545-0.099-8.121-0.168-0.595-0.595-1.443-0.854-1.932 0.028-0.835-0.05-2.649-1.046-4.241-1.206-1.922-6.908-2.325-11.475-2.325" style="fill:#e2ad45"/></g><g transform="translate(466.36 148.15)"><path d="m0 0-1.395 2.226c1.826 1.143 2.172 4.739 2.15 5.908 0 0.022-0.194 77.303-0.289 92.816-0.088 14.194-0.976 18.068-2.742 25.789l-0.457 2.01c-1.805 7.946-7.165 24.199-11.476 37.256-3.04 9.221-5.665 17.183-6.422 20.309-1.814 7.542-3.119 26.461-3.176 27.263-0.027 1.551-0.631 36.426-0.631 36.869 0 0.211 0 0.819 0.936 1.928 0.058 3.074 0.062 6.39-0.026 6.925-0.088 0.304-0.521 1.161-0.794 1.653l-0.202 0.369 0.046 0.416c0.002 0.013 0.172 1.719-0.629 2.994-0.632 0.548-4.98 1.092-9.253 1.092h-3.415c-4.276-0.003-8.625-0.544-9.311-1.161-0.748-1.206-0.578-2.912-0.576-2.931l0.043-0.41-0.198-0.369c-0.276-0.492-0.708-1.355-0.819-1.728-0.067-0.455-0.059-3.774-0.002-6.854 0.933-1.107 0.933-1.713 0.933-1.924 0-0.443-0.605-35.318-0.632-36.803-0.059-0.868-1.363-19.787-3.179-27.329-0.752-3.129-3.385-11.105-6.432-20.343-4.305-13.046-9.659-29.282-11.462-37.222l-0.46-2.013c-1.766-7.718-2.651-11.594-2.741-25.786-0.095-15.513-0.287-92.796-0.287-92.796-0.021-1.276 0.324-4.787 2.146-5.928l-1.394-2.24c-3.396 2.129-3.39 7.571-3.377 8.185 0 0 0.192 77.267 0.287 92.78 0.09 14.482 0.998 18.453 2.809 26.358l0.459 2.006c1.827 8.062 7.204 24.365 11.528 37.466 3.029 9.179 5.643 17.109 6.372 20.135 1.763 7.327 3.096 26.631 3.109 26.828 0.205 11.89 0.59 34.147 0.627 36.495-0.11 0.175-0.353 0.482-0.565 0.708l-0.345 0.367-0.011 0.504c-0.099 4.812-0.067 7.541 0.095 8.115 0.174 0.597 0.6 1.447 0.855 1.932-0.027 0.837 0.045 2.656 1.052 4.252 1.204 1.913 6.905 2.317 11.476 2.317h3.415c4.565 0 10.261-0.402 11.471-2.315 1.005-1.598 1.079-3.417 1.051-4.254 0.258-0.488 0.683-1.335 0.849-1.926 0.168-0.574 0.201-3.306 0.102-8.121l-0.01-0.504-0.349-0.369c-0.211-0.226-0.455-0.531-0.566-0.708 0.036-2.342 0.42-24.605 0.627-36.562 0.011-0.128 1.344-19.432 3.108-26.759 0.727-3.022 3.341-10.938 6.363-20.103 4.325-13.11 9.704-29.429 11.538-37.498l0.459-2.006c1.809-7.9 2.718-11.87 2.808-26.36 0.095-15.51 0.289-92.798 0.289-92.798 0.013-0.591 0.018-6.033-3.38-8.162" style="fill:#e5c84c"/></g><g transform="translate(498.47 191.05)"><path d="m0 0h-3.414c-4.573 0-10.274 0.403-11.475 2.321-1.005 1.592-1.076 3.41-1.048 4.247-0.26 0.491-0.688 1.344-0.852 1.943-0.167 0.555-0.199 3.291-0.099 8.11l0.01 0.505 0.347 0.367c0.209 0.224 0.451 0.527 0.557 0.701-0.036 2.324-0.42 24.606-0.627 36.571-0.01 0.127-1.343 19.428-3.107 26.756-0.728 3.038-3.353 11-6.396 20.22-4.311 13.071-9.678 29.337-11.5 37.384l-0.448 1.957c-1.817 7.916-2.727 11.891-2.82 26.401-0.099 15.338-0.28 92.032-0.283 92.802-0.012 0.591-0.025 6.038 3.372 8.158 7.948 4.98 22.872 4.982 33.614 4.965h4.922c10.817 0.043 25.672 0.017 33.612-4.965 3.392-2.12 3.388-7.567 3.373-8.18-0.002-0.75-0.188-77.442-0.287-92.78-0.092-14.501-0.998-18.473-2.811-26.384l-0.452-1.974c-1.713-7.557-10.46-34.217-10.832-35.347l-2.493 0.817c0.09 0.276 9.078 27.675 10.767 35.113l0.451 1.975c1.77 7.725 2.657 11.603 2.745 25.815 0.099 15.334 0.285 92.023 0.287 92.796 0.021 1.277-0.325 4.79-2.138 5.927-7.307 4.577-21.683 4.592-32.222 4.562h-4.922c-10.61 0.037-24.917 0.017-32.222-4.562-1.817-1.137-2.162-4.65-2.139-5.907 0.003-0.795 0.184-77.482 0.283-92.816 0.089-14.221 0.978-18.101 2.752-25.83l0.449-1.96c1.797-7.927 7.142-24.128 11.436-37.144 3.059-9.278 5.701-17.288 6.456-20.43 1.814-7.538 3.119-26.457 3.175-27.259 0.028-1.55 0.632-36.422 0.632-36.871 0-0.214 0-0.818-0.926-1.922-0.06-3.07-0.064-6.386 0.024-6.922 0.091-0.315 0.521-1.171 0.794-1.661l0.205-0.38-0.047-0.42c-0.002-0.011-0.173-1.719 0.63-2.992 0.633-0.55 4.98-1.093 9.253-1.093h3.414c4.272 0.002 8.62 0.543 9.303 1.158l2.172-1.462c-1.201-1.918-6.902-2.321-11.475-2.321" style="fill:#eeda69"/></g><g aria-label="Q" style="fill:#e2ad45" transform="matrix(.98106 .19370 .19370 -.98106 335 461.46)"><path style="" d="m4.5989-4.8142q-0.55371-0.71906-1.4958-0.71906-0.94208 0-1.4996 0.71906-0.55371 0.71521-0.55371 1.9534 0 1.2343 0.55371 1.9495 0.55756 0.71906 1.4996 0.71906 0.94208 0 1.4958-0.71906 0.54987-0.71521 0.54987-1.9495 0-1.2382-0.54987-1.9534zm-0.5883 4.7719 0.9767 1.0574h-0.4845l-0.8729-0.94589q-0.1615 0.030762-0.26532 0.038452-0.13074 0-0.26148 0.003845-1.119 0-1.7919-0.81135-0.66907-0.8075-0.66907-2.1649 0-1.3612 0.66907-2.1726 0.67292-0.8075 1.7919-0.8075 1.1151 0 1.7842 0.8075 0.66907 0.81135 0.66907 2.1726 0 0.97669-0.36914 1.7111-0.40375 0.79981-1.1766 1.1113z"/></g><g aria-label="u" style="fill:#e2ad45" transform="matrix(.99903 .044127 .044127 -.99903 348.51 463.08)"><path style="" d="m0.84595-1.7073v-2.5994h0.35375v2.5763q0 0.83826 0.26917 1.1805 0.26917 0.34223 0.79212 0.34223 0.61139 0 1.0459-0.36914 0.43836-0.37299 0.43836-1.2958v-2.434h0.35376v4.3066h-0.35376v-0.8075q-0.18842 0.39222-0.49604 0.59986-0.45374 0.31147-1.0036 0.31147-0.63831 0-1.019-0.43451-0.38075-0.43068-0.38075-1.3766z"/></g><g aria-label="n" style="fill:#e2ad45" transform="matrix(.99998 -.0063747 -.0063747 -.99998 368.41 463.48)"><path style="" d="m4.1451-2.5993v2.5993h-0.3538v-2.5762q0-0.83824-0.26916-1.1805-0.26916-0.34222-0.7921-0.34222-0.61138 0-1.0459 0.36913-0.43835 0.37298-0.43835 1.2958v2.434h-0.35363v-4.3066h0.35373v0.80748q0.18841-0.3922 0.49602-0.59984 0.45373-0.31146 1.0036-0.31146 0.63829 0 1.019 0.4345 0.38067 0.43066 0.38067 1.3766z"/></g><g aria-label="c" style="fill:#e2ad45" transform="matrix(.99801 -.062998 -.062998 -.99801 379.96 463.47)"><path style="" d="m3.8413-4.0989v0.37682q-0.31915-0.1961-0.52678-0.26531-0.3576-0.11151-0.68443-0.11151-0.93052 0-1.3343 0.4768-0.40374 0.4768-0.40374 1.4727 0 1.0036 0.40374 1.4804t1.3343 0.4768q0.30761 0 0.60753-0.084593 0.30377-0.080748 0.60369-0.24609v0.3576q-0.2961 0.13838-0.6114 0.2076-0.3191 0.06921-0.6306 0.06921-0.9459 0-1.5034-0.5114-0.55755-0.51525-0.55755-1.7495 0-1.2343 0.55755-1.7495 0.55754-0.5114 1.5034-0.5114 0.30761 0 0.65367 0.088438 0.34606 0.084593 0.58831 0.22302z"/></g><g aria-label="y" style="fill:#e2ad45" transform="matrix(.97634 -.21623 -.21623 -.97634 391.48 462.36)"><path style="" d="m2.3456 0.3999q-0.2308 0.57293-0.4961 0.7921-0.3576 0.2961-0.6998 0.2961h-0.52678v-0.2999h0.44988q0.2807 0 0.49218-0.18072 0.273-0.23462 0.4499-0.68835l0.1269-0.31915-1.7188-4.3066h0.37679l1.5304 3.8375 1.5342-3.8375h0.37298z"/></g><g aria-label="M" style="fill:#e2ad45" transform="matrix(-.0025270 -1 -1 .0025270 269.29 448.41)"><path style="" d="m1.2651-5.7409h0.53448l1.5957 4.2566 1.6034-4.2566h0.5307v5.7409h-0.3922v-5.041l-1.4766 3.9374h-0.5306l-1.4727-3.9374v5.041h-0.3922z"/></g><g aria-label="e" style="fill:#e2ad45" transform="matrix(-.0026032 -1 -1 .0026032 269.19 435.3)"><path style="" d="m4.2489-2.3302v0.22302h-3.2684q0 1.0382 0.40374 1.4535 0.44604 0.46142 1.3266 0.46142 0.23071 0 0.61138-0.099975 0.38452-0.099975 0.76135-0.29992v0.37302q-0.3806 0.1615-0.7805 0.2461-0.3999 0.08459-0.6344 0.08459-0.9959 0-1.4996-0.53833-0.54608-0.57293-0.54608-1.6804 0-1.1497 0.49987-1.7149 0.51141-0.58831 1.4227-0.58831 0.84594 0 1.2766 0.55755 0.42681 0.58447 0.42681 1.5227zm-0.3576-0.0769q0-0.90746-0.40759-1.3227-0.34222-0.36914-0.93053-0.36914-0.64214 0-1.0767 0.38452-0.3999 0.3576-0.48065 1.3074z"/></g><g aria-label="n" style="fill:#e2ad45" transform="matrix(-.0027048 -1 -1 .0027048 269.17 424.01)"><path style="" d="m4.1451-2.5993v2.5993h-0.3538v-2.5763q0-0.83825-0.26916-1.1805-0.26916-0.34222-0.79211-0.34222-0.61138 0-1.0459 0.36914-0.43835 0.37298-0.43835 1.2958v2.4341h-0.35362v-4.3066h0.35376v0.80749q0.18841-0.39221 0.49603-0.59985 0.45373-0.31146 1.0036-0.31146 0.6383 0 1.019 0.43451 0.38067 0.43066 0.38067 1.3766z"/></g><g aria-label="e" style="fill:#e2ad45" transform="matrix(-.0027683 -1 -1 .0027683 269.08 412.87)"><path style="" d="m4.2489-2.3302v0.22302h-3.2684q0 1.0382 0.40374 1.4535 0.44604 0.46142 1.3266 0.46142 0.23071 0 0.61138-0.099975 0.38452-0.099975 0.76135-0.29992v0.37298q-0.38067 0.1615-0.78057 0.24609-0.3999 0.084594-0.63445 0.084594-0.9959 0-1.4996-0.53833-0.54602-0.57293-0.54602-1.6803 0-1.1497 0.49987-1.715 0.51141-0.58831 1.4227-0.58831 0.84594 0 1.2766 0.55755 0.42682 0.58447 0.42682 1.5227zm-0.3576-0.0769q0-0.90746-0.40759-1.3227-0.34222-0.36914-0.93053-0.36914-0.64215 0-1.0767 0.38452-0.3999 0.3576-0.48065 1.3074z"/></g><g aria-label="t" style="fill:#e2ad45" transform="matrix(-.0028699 -1 -1 .0028699 269.05 401.79)"><path style="" d="m1.2651-5.5294v1.2228h1.4573v0.29992h-1.4573v2.5878q0 0.49218 0.12689 0.68829 0.26147 0.43066 0.76135 0.43066h0.5691v0.2999h-0.5499q-0.5268 0-0.8959-0.30761-0.36914-0.30762-0.36914-1.1113v-2.5878h-0.51525v-0.2999h0.51525v-1.2228z"/></g><g aria-label="o" style="fill:#e2ad45" transform="matrix(-.0030350 -1 -1 .0030350 269.17 392.24)"><path style="" d="m3.453-3.5683q-0.38067-0.53064-1.0382-0.53064t-1.0382 0.52679q-0.38452 0.52294-0.38452 1.415 0 0.91515 0.38067 1.4381 0.38067 0.52679 1.042 0.52679 0.65753 0 1.0382-0.52679 0.38452-0.53064 0.38452-1.4381 0-0.88055-0.38452-1.4112zm-1.0421-0.8421q0.82287 0 1.2997 0.61523 0.48065 0.61907 0.48065 1.6419 0 1.0574-0.48065 1.6688-0.4768 0.61523-1.2997 0.61523-0.83056 0-1.3112-0.61138-0.4768-0.61138-0.4768-1.6727 0-1.0344 0.48065-1.6457 0.48065-0.61138 1.3074-0.61138z"/></g><g aria-label="u" style="fill:#e2ad45" transform="matrix(-.0032762 -.99999 -.99999 .0032762 269.02 380.8)"><path style="" d="m0.84594-1.7073v-2.5993h0.35376v2.5763q0 0.83825 0.26916 1.1805 0.26916 0.34222 0.79211 0.34222 0.61138 0 1.0459-0.36914 0.43835-0.37298 0.43835-1.2958v-2.4341h0.3537v4.3066h-0.3538v-0.80749q-0.18841 0.39221-0.49603 0.59985-0.45373 0.31146-1.0036 0.31146-0.6383 0-1.019-0.43451-0.38066-0.43066-0.38066-1.3766z"/></g><g aria-label="-" style="fill:#e2ad45" transform="matrix(-.0037968 -.99999 -.99999 .0037968 269.11 369.69)"><path style="" d="m0.38452-2.3148h2.0726v0.31531h-2.0726z"/></g><g aria-label="S" style="fill:#e2ad45" transform="matrix(-.011467 -.99993 -.99993 .011467 268.96 359.34)"><path style="" d="m4.1682-5.4525v0.36145q-0.3769-0.1884-0.8344-0.3345-0.3-0.0962-0.7575-0.1039-0.67675-0.011535-1.0997 0.29992-0.38452 0.28454-0.38452 0.97667 0 0.42681 0.29223 0.67675 0.31146 0.26532 0.93822 0.42681l0.45758 0.1192q0.61523 0.1615 0.94976 0.38452 0.62676 0.42681 0.62676 1.0728 0 0.93438-0.54986 1.2958-0.59985 0.38836-1.2305 0.38836-0.65752 0-1.1766-0.18072-0.32684-0.13074-0.68444-0.36145v-0.37683q0.53832 0.31915 0.75365 0.40759 0.48065 0.1961 0.89208 0.1961 0.70367 0 1.1689-0.31146 0.43835-0.29223 0.43835-1.0267 0-0.43066-0.26916-0.67675-0.3883-0.3577-1.0074-0.5076l-0.46142-0.11151q-0.5537-0.1346-0.9421-0.3769-0.58828-0.3691-0.58828-1.0074 0-0.79595 0.48065-1.2228 0.44604-0.39605 1.3535-0.3999 0.53448 0 0.81902 0.092284 0.73058 0.2384 0.81518 0.29992z"/></g><g aria-label="a" style="fill:#e2ad45" transform="matrix(-.092268 -.99573 -.99573 .092268 268.63 347.18)"><path style="" d="m2.6147-2.4301q-0.85363 0-1.2305 0.30377-0.37683 0.30377-0.37683 0.88823 0 0.56908 0.31146 0.80748t0.73827 0.2384q0.80748 0 1.1612-0.68444 0.3576-0.6845 0.3576-1.2882v-0.26532zm1.3189-0.026916v2.457h-0.3499v-1.1689q-0.29608 0.85747-0.78441 1.092-0.38836 0.18841-0.77288 0.18841-0.64214 0-1.0113-0.34222-0.36914-0.34606-0.36914-1.0151 0-0.66906 0.48065-1.069 0.48065-0.40374 1.5727-0.40374h0.8767v-0.069213q0-0.57293-0.32684-0.94206-0.32299-0.36914-1.069-0.36914-0.36914 0-0.75365 0.13843-0.24609 0.088439-0.6383 0.3576v-0.38067q0.34222-0.21148 0.6383-0.29992 0.43066-0.12689 0.82671-0.12689 0.76134 0 1.2535 0.46142 0.42681 0.39605 0.42681 1.4919z"/></g><g aria-label="l" style="fill:#e2ad45" transform="matrix(-.21143 -.97739 -.97739 .21143 267.11 335.59)"><path style="" d="m0.89209-5.9832h0.35381v5.9832h-0.35381z"/></g><g aria-label="o" style="fill:#e2ad45" transform="matrix(-.26027 -.96554 -.96554 .26027 265.43 327.23)"><path style="" d="m3.453-3.5684q-0.3807-0.5306-1.0382-0.5306-0.65753 0-1.0382 0.52679-0.38452 0.52295-0.38452 1.415 0 0.91516 0.38068 1.4381 0.38068 0.52679 1.0421 0.52679 0.65753 0 1.0382-0.52679 0.38452-0.53064 0.38452-1.4381 0-0.88055-0.38452-1.4112zm-1.0421-0.8421q0.82288 0 1.2997 0.61523 0.48065 0.61908 0.48065 1.6419 0 1.0574-0.48065 1.6688-0.47681 0.61523-1.2997 0.61523-0.83057 0-1.3112-0.61139-0.47681-0.61139-0.47681-1.6727 0-1.0344 0.48065-1.6458 0.48065-0.61139 1.3074-0.61139z"/></g><g aria-label="n" style="fill:#e2ad45" transform="matrix(-.29625 -.95511 -.95511 .29625 262.06 316.49)"><path style="" d="m4.1451-2.5993v2.5993h-0.3538v-2.5763q0-0.83824-0.26916-1.1805-0.26916-0.34222-0.7921-0.34222-0.61138 0-1.0459 0.36914-0.43835 0.37298-0.43835 1.2958v2.4341h-0.35362v-4.3066h0.35372v0.80748q0.18841-0.39221 0.49603-0.59984 0.45373-0.31146 1.0036-0.31146 0.6383 0 1.019 0.4345 0.38067 0.43066 0.38067 1.3766z"/></g><g aria-label="C" style="fill:#e5c84c" transform="matrix(.31317 -.94970 -.94970 -.31317 187.34 317.67)"><path style="" d="m5.0719-5.2641v0.4422q-0.3923-0.3576-0.8345-0.5307-0.446-0.1768-0.9459-0.1768-1.0844 0-1.6573 0.68445-0.57678 0.68445-0.57678 1.9803t0.57678 1.9841q0.57294 0.6883 1.6573 0.6883 0.49988 0 0.94593-0.17688 0.4422-0.18073 0.83441-0.53833v0.46527q-0.40759 0.27686-0.86518 0.41528-0.45374 0.13843-0.96131 0.13843-1.2074 0-1.8995-0.79596-0.69214-0.79981-0.69214-2.1802 0-1.3843 0.69214-2.1802 0.69214-0.79981 1.8995-0.79981 0.51526 0 0.969 0.14612 0.45758 0.14227 0.85749 0.43451z"/></g><g aria-label="o" style="fill:#e5c84c" transform="matrix(.30977 -.95081 -.95081 -.30977 190.47 307.67)"><path style="" d="m3.4529-3.5683q-0.38067-0.53063-1.0382-0.53063-0.65752 0-1.0382 0.52678-0.38451 0.52294-0.38451 1.415 0 0.91514 0.38067 1.4381 0.38067 0.52678 1.042 0.52678 0.65752 0 1.0382-0.52678 0.38451-0.53063 0.38451-1.4381 0-0.88054-0.38451-1.4112zm-1.042-0.8421q0.82286 0 1.2997 0.61522 0.48064 0.61907 0.48064 1.6419 0 1.0574-0.48064 1.6688-0.4768 0.61522-1.2997 0.61522-0.83055 0-1.3112-0.61138-0.4768-0.61138-0.4768-1.6726 0-1.0343 0.48064-1.6457 0.48064-0.61138 1.3073-0.61138z"/></g><g aria-label="t" style="fill:#e5c84c" transform="matrix(.30183 -.95336 -.95336 -.30183 193.41 298.43)"><path style="" d="m1.2651-5.5295v1.2228h1.4573v0.3h-1.4573v2.5879q0 0.49219 0.12689 0.6883 0.26148 0.43067 0.76136 0.43067h0.569v0.2998h-0.5498q-0.5268 0-0.896-0.30762-0.36912-0.30762-0.36912-1.1113v-2.5878h-0.51526v-0.29993h0.51526v-1.2228z"/></g><g aria-label="e" style="fill:#e5c84c" transform="matrix(.28496 -.95854 -.95854 -.28496 196.08 290.48)"><path style="" d="m4.249-2.3302v0.22302h-3.2685q0 1.0382 0.40375 1.4535 0.44605 0.46143 1.3266 0.46143 0.23071 0 0.61139-0.099976 0.38452-0.099976 0.76135-0.29993v0.37299q-0.38068 0.1615-0.78058 0.24609-0.3999 0.084595-0.63446 0.084595-0.99591 0-1.4996-0.53833-0.54602-0.57294-0.54602-1.6804 0-1.1497 0.49988-1.715 0.51141-0.58832 1.4227-0.58832 0.84595 0 1.2766 0.55756 0.42682 0.58447 0.42682 1.5227zm-0.3576-0.0769q0-0.90747-0.40759-1.3228-0.3423-0.3691-0.9306-0.3691-0.64215 0-1.0767 0.38452-0.3999 0.35761-0.48065 1.3074z"/></g><g aria-label="a" style="fill:#e5c84c" transform="matrix(.22977 -.97325 -.97325 -.22977 198.82 280.81)"><path style="" d="m2.6147-2.4302q-0.85364 0-1.2305 0.30377-0.37683 0.30377-0.37683 0.88824 0 0.56909 0.31146 0.80749t0.73828 0.2384q0.80749 0 1.1613-0.68445 0.3575-0.6844 0.3575-1.2881v-0.26532zm1.3189-0.026917v2.4571h-0.34991v-1.1689q-0.29608 0.85748-0.78442 1.092-0.38837 0.18842-0.77289 0.18842-0.64215 0-1.0113-0.34222-0.36914-0.34607-0.36914-1.0151 0-0.66907 0.48065-1.069 0.48065-0.40375 1.5727-0.40375h0.8766v-0.069214q0-0.57294-0.32684-0.94208-0.323-0.36914-1.069-0.36914-0.36914 0-0.75366 0.13843-0.24609 0.08844-0.6383 0.3576v-0.38068q0.34222-0.21149 0.6383-0.29993 0.43066-0.12689 0.82672-0.12689 0.76135 0 1.2535 0.46142 0.42682 0.39606 0.42682 1.4919z"/></g><g aria-label="u" style="fill:#e5c84c" transform="matrix(.17250 -.98501 -.98501 -.17250 200.9 271.22)"><path style="" d="m0.84594-1.7073v-2.5993h0.35376v2.5763q0 0.83825 0.26916 1.1805 0.26916 0.34222 0.79211 0.34222 0.61138 0 1.0459-0.36914 0.43835-0.37298 0.43835-1.2958v-2.4341h0.3537v4.3066h-0.3538v-0.80749q-0.18841 0.39221-0.49603 0.59985-0.45373 0.31146-1.0036 0.31146-0.6383 0-1.019-0.43451-0.38066-0.43066-0.38066-1.3766z"/></g><g aria-label="x" style="fill:#e5c84c" transform="matrix(.058033 -.99831 -.99831 -.058033 202.05 261.34)"><path style="" d="m4.1066-4.3066-1.5573 2.0687 1.6727 2.2379h-0.423l-1.4611-1.961-1.4766 1.961h-0.42295l1.6842-2.2533-1.5304-2.0533h0.4191l1.3266 1.788 1.3458-1.788z"/></g><g aria-label="d" style="fill:#e5c84c" transform="matrix(.0042285 -.99999 -.99999 -.0042285 202.59 245.33)"><path style="" d="m3.753-3.3223v-2.6609h0.346v5.9832h-0.346v-0.97669q-0.24225 0.56141-0.5268 0.76905-0.43451 0.31916-0.81904 0.31916-0.7652 0-1.2728-0.62293-0.50757-0.62293-0.50757-1.6381 0-1.0151 0.50757-1.6381 0.50757-0.62293 1.2728-0.62293 0.38452 0 0.81904 0.31916 0.28455 0.20764 0.5268 0.76905zm-2.3072-0.3268q-0.44605 0.44989-0.44605 1.4996 0 1.0498 0.44605 1.4996 0.4422 0.44989 0.9344 0.44989 0.48066 0 0.92671-0.44989 0.4422-0.44989 0.4422-1.4996 0-1.0498-0.4422-1.4996-0.44605-0.44989-0.92671-0.44989-0.49219 0-0.9344 0.44989z"/></g><g aria-label="u" style="fill:#e5c84c" transform="matrix(.0035048 -.99999 -.99999 -.0035048 202.61 235.67)"><path style="" d="m0.84594-1.7073v-2.5993h0.35376v2.5763q0 0.83825 0.26916 1.1805 0.26916 0.34222 0.79211 0.34222 0.61139 0 1.0459-0.36914 0.43835-0.37298 0.43835-1.2958v-2.4341h0.3537v4.3066h-0.3538v-0.80749q-0.18841 0.39221-0.49603 0.59985-0.45373 0.31146-1.0036 0.31146-0.6383 0-1.019-0.43451-0.38066-0.43066-0.38066-1.3766z"/></g><g aria-label="G" style="fill:#e5c84c" transform="matrix(.0030350 -1 -1 -.0030350 202.55 219.44)"><path style="" d="m4.8834-0.48834v-2.0111h-1.465v-0.3153h1.8457v2.5109q-0.4115 0.20382-0.9037 0.3038-0.4921 0.10382-1.0535 0.11151-1.2458 0-1.9457-0.78826-0.70367-0.78442-0.70367-2.1879 0-1.4073 0.70367-2.1956 0.69982-0.78442 1.9457-0.78442 0.51525 0 0.97283 0.10382 0.46142 0.11151 0.84594 0.32684v0.37298q-0.3884-0.2153-0.8306-0.3268-0.4384-0.1076-0.9229-0.1076-1.1574 0-1.738 0.65753-0.58062 0.65368-0.58062 1.9534 0 1.3189 0.58062 1.9841 0.58062 0.66906 1.738 0.66906 0.47296 0 0.84594-0.065368 0.36914-0.069213 0.66522-0.21149z"/></g><g aria-label="i" style="fill:#e5c84c" transform="matrix(.0028953 -1 -1 -.0028953 202.64 208.61)"><path style="" d="m0.88439-4.3066h0.35371v4.3066h-0.35371zm0-1.6765h0.35371v0.48449h-0.35371z"/></g><g aria-label="e" style="fill:#e5c84c" transform="matrix(.0028318 -1 -1 -.0028318 202.58 201.97)"><path style="" d="m4.2489-2.3302v0.22302h-3.2684q0 1.0382 0.40374 1.4535 0.44604 0.46142 1.3266 0.46142 0.23071 0 0.61138-0.099975 0.38452-0.099975 0.76135-0.29992v0.37298q-0.38067 0.1615-0.78057 0.24609-0.3999 0.084594-0.63446 0.084594-0.9959 0-1.4996-0.53833-0.54602-0.57293-0.54602-1.6803 0-1.1497 0.49987-1.715 0.51141-0.58831 1.4227-0.58831 0.84594 0 1.2766 0.55755 0.42682 0.58447 0.42682 1.5227zm-0.3576-0.076904q0-0.90746-0.40759-1.3227-0.34222-0.36914-0.93053-0.36914-0.64215 0-1.0767 0.38452-0.3999 0.3576-0.48065 1.3074z"/></g><g aria-label="n" style="fill:#e5c84c" transform="matrix(.0027302 -1 -1 -.0027302 202.6 192.21)"><path style="" d="m4.1451-2.5993v2.5993h-0.3538v-2.5763q0-0.83825-0.26916-1.1805-0.26916-0.34222-0.79211-0.34222-0.61138 0-1.0459 0.36914-0.43835 0.37298-0.43835 1.2958v2.4341h-0.35362v-4.3066h0.35372v0.80749q0.18841-0.39221 0.49603-0.59985 0.45373-0.31146 1.0036-0.31146 0.6383 0 1.019 0.43451 0.38067 0.43066 0.38067 1.3766z"/></g><g aria-label="n" style="fill:#e5c84c" transform="matrix(.0026286 -1 -1 -.0026286 202.63 182.64)"><path style="" d="m4.1451-2.5993v2.5993h-0.3538v-2.5763q0-0.83825-0.26916-1.1805-0.26916-0.34222-0.79211-0.34222-0.61138 0-1.0459 0.36914-0.43835 0.37298-0.43835 1.2958v2.4341h-0.35362v-4.3066h0.35372v0.80749q0.18841-0.39221 0.49603-0.59985 0.45373-0.31146 1.0036-0.31146 0.6383 0 1.019 0.43451 0.38067 0.43066 0.38067 1.3766z"/></g><g aria-label="o" style="fill:#e5c84c" transform="matrix(.0026032 -1 -1 -.0026032 202.72 173.06)"><path style="" d="m3.453-3.5683q-0.3807-0.5307-1.0382-0.5307-0.65753 0-1.0382 0.52679-0.38452 0.52294-0.38452 1.415 0 0.91515 0.38067 1.4381 0.38067 0.52679 1.042 0.52679 0.65753 0 1.0382-0.52679 0.38452-0.53063 0.38452-1.4381 0-0.88055-0.38452-1.4112zm-1.0421-0.8421q0.82287 0 1.2997 0.61523 0.48065 0.61907 0.48065 1.6419 0 1.0574-0.48065 1.6688-0.4768 0.61523-1.2997 0.61523-0.83056 0-1.3112-0.61138-0.47688-0.6113-0.47688-1.6726 0-1.0344 0.48065-1.6457 0.48065-0.61138 1.3074-0.61138z"/></g><g aria-label="i" style="fill:#e5c84c" transform="matrix(.0025270 -1 -1 -.0025270 202.67 163.27)"><path style="" d="m0.88439-4.3066h0.35371v4.3066h-0.35371zm0-1.6765h0.35371v0.4845h-0.35371z"/></g><g aria-label="s" style="fill:#e5c84c" transform="matrix(-.16383 -.98649 -.98649 .16383 203.05 155.91)"><path style="" d="m3.33-4.1798v0.38837q-0.37299-0.20764-0.46528-0.23072-0.26917-0.06537-0.66908-0.076905-0.60755 0-0.95363 0.24225-0.26532 0.19995-0.26532 0.68446 0 0.32685 0.24994 0.51142 0.26532 0.19995 0.75752 0.30762l0.24225 0.053834q0.6114 0.13458 0.92671 0.38068 0.3653 0.2807 0.38453 0.7306 0 0.6114-0.36146 0.95747-0.38453 0.34223-1.2382 0.34223-0.47681 0-0.72291-0.06537-0.29609-0.084596-0.62293-0.2038v-0.44221q0.46912 0.26917 0.60755 0.30762 0.38068 0.099977 0.75367 0.099977 0.62293 0 0.91902-0.25763 0.29993-0.26148 0.29993-0.68446 0-0.35376-0.19995-0.51527-0.2883-0.2306-0.9189-0.3768l-0.2461-0.0576q-0.5422-0.1269-0.82676-0.3576-0.35761-0.2884-0.35761-0.6999 0-0.67677 0.43067-0.97285 0.43067-0.29609 1.0574-0.29609 0.53449 0 0.73829 0.057679 0.2461 0.069215 0.48066 0.17304z"/></g><g aria-label="R" style="fill:#e5c84c" transform="matrix(.97090 -.23950 -.23950 -.97090 401.21 146.63)"><path style="" d="m3.3338-2.6917q0.23841 0.084596 0.46143 0.36145 0.15766 0.19995 0.4499 0.76136l0.8037 1.5689h-0.4114l-0.8191-1.5766q-0.3191-0.619-0.6114-0.819-0.2999-0.2-0.8113-0.2h-1.0421v2.5956h-0.38449v-5.741h1.5573q0.88056 0 1.3151 0.41144 0.43451 0.41144 0.43451 1.242 0 0.53449-0.22687 0.89979-0.21533 0.35761-0.71522 0.49604zm-1.9803-2.734v2.511h1.2689q0.61524 0 0.93055-0.31916t0.31531-0.94209q0-0.61909-0.31531-0.9344t-0.93055-0.31531z"/></g><g aria-label="e" style="fill:#e5c84c" transform="matrix(.99809 -.061777 -.061777 -.99809 411.82 144.76)"><path style="" d="m4.249-2.3302v0.223h-3.2685q0 1.0382 0.40375 1.4535 0.44605 0.46143 1.3266 0.46143 0.23071 0 0.61139-0.099976 0.38452-0.099976 0.76136-0.29993v0.37299q-0.3807 0.16153-0.7806 0.24613-0.3999 0.08459-0.6345 0.08459-0.99592 0-1.4996-0.53833-0.54602-0.57294-0.54602-1.6804 0-1.1497 0.49988-1.715 0.51142-0.58832 1.4227-0.58832 0.84595 0 1.2766 0.55756 0.42682 0.58448 0.42682 1.5227zm-0.35761-0.076905q0-0.90748-0.4076-1.3228-0.34223-0.36914-0.93055-0.36914-0.64215 0-1.0767 0.38452-0.3999 0.35761-0.48065 1.3074z"/></g><g aria-label="u" style="fill:#e5c84c" transform="matrix(.99998 -.0064001 -.0064001 -.99998 422.58 144.42)"><path style="" d="m0.84593-1.7072v-2.5994h0.35377v2.5762q0 0.83824 0.26916 1.1805 0.26916 0.34222 0.7921 0.34222 0.61138 0 1.0459-0.36913 0.43835-0.37298 0.43835-1.2958v-2.434h0.3536v4.3066h-0.3537v-0.80748q-0.18841 0.3922-0.49602 0.59984-0.45373 0.31146-1.0036 0.31146-0.63829 0-1.019-0.4345-0.38067-0.43066-0.38067-1.3765z"/></g><g aria-label="l" style="fill:#e5c84c" transform="matrix(.99967 .025867 .025867 -.99967 440.87 144.4)"><path style="" d="m0.89209-5.9832h0.35381v5.9832h-0.35381z"/></g><g aria-label="l" style="fill:#e5c84c" transform="matrix(.99609 .088305 .088305 -.99609 448.04 144.95)"><path style="" d="m0.89209-5.9831h0.35371v5.9831h-0.35371z"/></g><g aria-label="y" style="fill:#e5c84c" transform="matrix(.96732 .25356 .25356 -.96732 455.45 145.66)"><path style="" d="m2.3456 0.39991q-0.2307 0.57295-0.496 0.79209-0.3576 0.2961-0.6999 0.2961h-0.52676v-0.2999h0.44986q0.28071 0 0.4922-0.18073 0.273-0.2346 0.4499-0.68834l0.1269-0.31916-1.7188-4.3067h0.37682l1.5304 3.8376 1.5343-3.8376h0.37299z"/></g><g aria-label="S" style="fill:#eeda69" transform="matrix(-.31110 -.95038 -.95038 .31110 516.56 286.69)"><path style="" d="m4.1682-5.4525v0.36145q-0.3768-0.1885-0.8344-0.3346-0.2999-0.0961-0.7575-0.1038-0.6768-0.0115-1.0997 0.2999-0.3846 0.2846-0.3846 0.9767 0 0.42682 0.29224 0.67676 0.31146 0.26532 0.93823 0.42682l0.45758 0.1192q0.61523 0.1615 0.94977 0.38452 0.62677 0.42682 0.62677 1.0728 0 0.93438-0.54986 1.2958-0.59985 0.38837-1.2305 0.38837-0.65753 0-1.1766-0.18072-0.32684-0.13074-0.68445-0.36145v-0.37683q0.53833 0.31915 0.75366 0.40759 0.48065 0.19611 0.89209 0.19611 0.70367 0 1.1689-0.31146 0.43835-0.29224 0.43835-1.0267 0-0.43066-0.26916-0.67676-0.3882-0.3577-1.0073-0.5076l-0.4614-0.1116q-0.55371-0.13458-0.94207-0.37683-0.58832-0.36914-0.58832-1.0074 0-0.79596 0.48065-1.2228 0.44604-0.39606 1.3535-0.3999 0.53448 0 0.81903 0.092285 0.73059 0.2384 0.81518 0.29993z"/></g><g aria-label="a" style="fill:#eeda69" transform="matrix(-.25895 -.96589 -.96589 .25895 512.6 274.55)"><path style="" d="m2.6148-2.4302q-0.85365 0-1.2305 0.30378-0.37684 0.30378-0.37684 0.88826 0 0.5691 0.31147 0.80751t0.73829 0.23841q0.80751 0 1.1613-0.68446 0.35761-0.68446 0.35761-1.2882v-0.26532zm1.3189-0.0269v2.4571h-0.3499v-1.169q-0.29609 0.8575-0.78444 1.0921-0.38837 0.18842-0.7729 0.18842-0.64216 0-1.0113-0.34223-0.36915-0.34607-0.36915-1.0152 0-0.66908 0.48066-1.069 0.48066-0.40375 1.5727-0.40375h0.87672v-0.069215q0-0.57295-0.32685-0.94209-0.323-0.36915-1.069-0.36915-0.36915 0-0.75367 0.13843-0.2461 0.088441-0.63832 0.35761v-0.38068q0.34223-0.21149 0.63832-0.29993 0.43067-0.12689 0.82673-0.12689 0.76136 0 1.2536 0.46143 0.42683 0.39606 0.42683 1.492z"/></g><g aria-label="n" style="fill:#eeda69" transform="matrix(-.10897 -.99405 -.99405 .10897 510.35 262.26)"><path style="" d="m4.1451-2.5994v2.5994h-0.3537v-2.5763q0-0.83826-0.26916-1.1805-0.26916-0.34222-0.79211-0.34222-0.61139 0-1.0459 0.36914-0.43835 0.37299-0.43835 1.2958v2.4341h-0.35371v-4.3066h0.35371v0.80749q0.18842-0.39221 0.49603-0.59985 0.45373-0.31146 1.0036-0.31146 0.6383 0 1.019 0.43451 0.38068 0.43066 0.38068 1.3766z"/></g><g aria-label="c" style="fill:#eeda69" transform="matrix(-.078197 -.99694 -.99694 .078197 509.13 250.4)"><path style="" d="m3.8414-4.099v0.37683q-0.3192-0.1961-0.5268-0.2653-0.3576-0.1115-0.6845-0.1115-0.93054 0-1.3343 0.47681-0.40375 0.47681-0.40375 1.4727 0 1.0036 0.40375 1.4804 0.40375 0.47681 1.3343 0.47681 0.30762 0 0.60754-0.084595 0.30377-0.08075 0.6037-0.24609v0.35761q-0.2961 0.13847-0.6114 0.20769-0.3192 0.06921-0.6306 0.06921-0.94592 0-1.5035-0.51141-0.55756-0.51526-0.55756-1.7496t0.55756-1.7496q0.55756-0.51141 1.5035-0.51141 0.30762 0 0.65369 0.08844 0.34607 0.084595 0.58832 0.22302z"/></g><g aria-label="er" style="fill:#eeda69" transform="matrix(-.017270 -.99985 -.99985 .017270 508.46 238.65)"><path style="" d="m4.249-2.3302v0.22302h-3.2685q0 1.0382 0.40375 1.4535 0.44605 0.46143 1.3266 0.46143 0.23072 0 0.61139-0.099976 0.38453-0.099976 0.76136-0.29993v0.37299q-0.3807 0.16153-0.7806 0.24613-0.3999 0.08459-0.6345 0.08459-0.99592 0-1.4996-0.53834-0.54603-0.57294-0.54603-1.6804 0-1.1497 0.49988-1.715 0.51142-0.58832 1.4227-0.58832 0.84596 0 1.2766 0.55756 0.42682 0.58448 0.42682 1.5227zm-0.35761-0.076905q0-0.90748-0.4076-1.3228-0.34223-0.36914-0.93055-0.36914-0.64216 0-1.0767 0.38453-0.39991 0.35761-0.48066 1.3074z"/><path style="" d="m15.649-4.0029q-0.0846-0.042298-0.23072-0.07306-0.13074-0.023072-0.33069-0.023072-0.65369 0-1.0844 0.4845-0.33838 0.39222-0.33838 1.3458v2.2687h-0.34607v-4.3067h0.34607v0.8075q0.17304-0.34607 0.4845-0.58448 0.43067-0.32685 1.0151-0.32685 0.14996 0 0.26148 0.011536 0.11536 0 0.22302 0.026917z"/></g><g aria-label="r" style="fill:#eeda69" transform="matrix(.040902 -.99916 -.99916 -.040902 508 215.62)"><path style="" d="m3.23-4.0029q-0.084595-0.042297-0.23071-0.073059-0.13074-0.023071-0.33069-0.023071-0.65369 0-1.0843 0.4845-0.3385 0.3922-0.3385 1.3458v2.2687h-0.34602v-4.3066h0.34602v0.80749q0.1731-0.3461 0.4845-0.5845 0.4307-0.3269 1.0152-0.3269 0.14996 0 0.26147 0.011536 0.11536 0 0.22302 0.026917z"/></g><g aria-label="e" style="fill:#eeda69" transform="matrix(-.13122 -.99135 -.99135 .13122 508.67 204.37)"><path style="" d="m4.249-2.3302v0.22303h-3.2685q0 1.0382 0.40375 1.4535 0.44605 0.46143 1.3266 0.46143 0.23072 0 0.6114-0.099977 0.38453-0.099977 0.76136-0.29993v0.37299q-0.38068 0.1615-0.78059 0.2461-0.39991 0.084596-0.63447 0.084596-0.99592 0-1.4997-0.53834-0.54603-0.57294-0.54603-1.6804 0-1.1497 0.49988-1.715 0.51142-0.58833 1.4227-0.58833 0.84596 0 1.2766 0.55756 0.42682 0.58448 0.42682 1.5227zm-0.35761-0.076905q0-0.90748-0.4076-1.3228-0.34223-0.36915-0.93055-0.36915-0.64216 0-1.0767 0.38453-0.39991 0.35761-0.48066 1.3074z"/></g><g transform="translate(300.04 141.95)"><path d="m0 0c-15.414 0-30.873 1.658-36.217 4.983-3.406 2.117-3.396 7.57-3.384 8.185 0.002 0.75 0.193 77.441 0.288 92.781 0.085 14.493 0.998 18.462 2.813 26.371l0.455 1.988c1.825 8.047 7.191 24.32 11.505 37.394 3.039 9.214 5.664 17.173 6.391 20.206 1.763 7.327 3.102 26.634 3.114 26.828 0.205 11.895 0.587 34.16 0.622 36.5-0.115 0.185-0.373 0.498-0.561 0.696l-0.35 0.369-0.01 0.509c-0.097 4.812-0.063 7.546 0.101 8.125 0.17 0.59 0.596 1.441 0.857 1.929-0.029 0.837 0.043 2.652 1.048 4.249 1.195 1.915 6.896 2.32 11.47 2.32h3.414c4.569 0 10.27-0.402 11.474-2.324 1.001-1.595 1.074-3.408 1.046-4.243 0.263-0.49 0.687-1.341 0.858-1.931 0.166-0.579 0.196-3.315 0.095-8.125l-0.009-0.509-0.353-0.369c-0.212-0.224-0.451-0.526-0.563-0.698 0.038-2.338 0.423-24.607 0.634-36.565 0.011-0.127 1.348-19.434 3.108-26.761 0.727-3.027 3.344-10.96 6.374-20.147 4.322-13.096 9.697-29.394 11.525-37.455l0.472-2.07c1.318-5.754 2.187-9.556 2.567-17.083l-2.621-0.131c-0.369 7.297-1.173 10.81-2.504 16.63l-0.471 2.076c-1.799 7.936-7.158 24.168-11.459 37.21-3.051 9.244-5.684 17.223-6.437 20.355-1.811 7.545-3.119 26.461-3.177 27.263-0.028 1.55-0.637 36.423-0.637 36.871 0 0.216 0 0.824 0.937 1.926 0.06 3.076 0.067 6.392-0.022 6.927-0.088 0.302-0.522 1.16-0.794 1.656l-0.205 0.366 0.044 0.419c0.002 0.009 0.166 1.718-0.633 2.994-0.627 0.55-4.975 1.091-9.249 1.093h-3.414c-4.27-0.002-8.618-0.543-9.301-1.161-0.75-1.209-0.58-2.908-0.58-2.924l0.05-0.418-0.206-0.369c-0.275-0.496-0.708-1.354-0.812-1.723-0.076-0.472-0.069-3.786-0.013-6.862 0.934-1.1 0.934-1.708 0.934-1.924 0-0.448-0.601-35.321-0.626-36.803-0.057-0.87-1.369-19.788-3.183-27.331-0.755-3.138-3.395-11.145-6.453-20.416-4.295-13.021-9.639-29.224-11.437-37.149l-0.455-1.996c-1.773-7.719-2.663-11.595-2.748-25.798-0.095-15.334-0.286-92.024-0.288-92.795-0.02-1.28 0.322-4.795 2.145-5.927 9.953-6.191 59.848-6.199 69.339-0.014l1.435-2.213c-5.112-3.33-20.504-4.997-35.943-4.997" style="fill:#e2ad45"/></g><g transform="translate(340.23 250.13)"><path d="m0 0-2.834-0.028 0.021-1.998c0.02-1.837 2.854-1.809 2.834 0.029zm-3.218-0.035-1.909-0.016-0.006 0.424 5.525 0.058c0.006-0.806 0.014-1.619 0.022-2.424 0.025-2.4-3.589-2.435-3.611-0.035z" style="fill:#e2ad45"/></g><g transform="translate(337.11 237.53)"><path d="m0 0c1.011 0.004 1.661 0.726 1.657 1.609-0.007 0.884-0.665 1.6-1.674 1.594-1.01-0.004-1.614-0.728-1.607-1.61 0.002-0.884 0.615-1.6 1.624-1.593m-0.017 3.58c1.237 0.009 2.033-0.871 2.037-1.969 0.006-1.096-0.78-1.982-2.016-1.991-1.242-0.006-2.004 0.874-2.008 1.971-0.006 1.097 0.745 1.985 1.987 1.989" style="fill:#e2ad45"/></g><g transform="translate(335.2 228.46)"><path d="m0 0 0.703 0.004c-0.539 0.297-0.761 0.841-0.772 1.384-0.005 1.043 0.631 1.764 1.71 1.768l2.252 0.013v-0.386l-2.243-0.014c-0.883-0.004-1.353-0.549-1.342-1.395 0.012-0.804 0.623-1.36 1.427-1.357l2.171 0.009v-0.385l-3.902-0.021z" style="fill:#e2ad45"/></g><g transform="translate(340.39 222.52)"><path d="m0 0c-0.41-0.004-0.408-0.625 0.002-0.623s0.408 0.626-0.002 0.623m-1.255-0.502-3.911-0.02-0.002 0.385 3.913 0.019z" style="fill:#e2ad45"/></g><g transform="translate(340.76 215.95)"><path d="m0 0-5.521-0.027-0.003 0.385 5.524 0.03z" style="fill:#e2ad45"/></g><g transform="translate(340.78 209.78)"><path d="m0 0-5.522-0.026-0.003 0.385 5.525 0.029z" style="fill:#e2ad45"/></g><g transform="translate(339.19 200.61)"><path d="m0 0-5.535 2.348-0.002 0.41 1.678-0.709 3.84 1.581 0.003-0.417-2.299-0.918-1.128-0.464 1.142-0.443 2.299-0.968z" style="fill:#e2ad45"/></g><g transform="translate(338.21 188.57)"><path d="m0 0 0.014-3.183-0.402-0.002-0.014 3.181-2.502-0.013-0.004 0.427 5.533 0.027 0.017-3.716-0.425-0.002-0.019 3.291z" style="fill:#e2ad45"/></g><g transform="translate(335.35 176.61)"><path d="m0 0 0.702 0.004c-0.538 0.298-0.762 0.841-0.771 1.385-0.004 1.041 0.632 1.763 1.71 1.767l2.252 0.012v-0.385l-2.242-0.014c-0.883-0.004-1.353-0.55-1.343-1.395 0.012-0.804 0.624-1.359 1.427-1.357l2.172 0.009 0.002-0.385-3.907-0.021z" style="fill:#e2ad45"/></g><g transform="translate(335.39 164.82)"><path d="m0 0 2.336 0.01c0.751 0.004 1.275 0.512 1.273 1.253-0.005 0.74-0.559 1.251-1.31 1.249l-2.313-0.012v0.385l2.311 0.014c0.751 0.002 1.292 0.517 1.29 1.262-0.006 0.74-0.552 1.242-1.3 1.236l-2.313-0.01-0.002 0.387 3.896 0.019 0.002-0.36-0.646-0.015c0.512-0.263 0.728-0.761 0.732-1.266 0.004-0.592-0.263-1.215-0.955-1.447 0.642-0.234 0.968-0.839 0.97-1.44 0.006-0.955-0.662-1.636-1.633-1.643l-2.336-0.01z" style="fill:#e2ad45"/></g><g transform="translate(339.96 156.68)"><path d="m0 0 0.949-0.757h0.006l0.017 0.513-0.929 0.619-0.033 0.005zm-2.394 1.77-0.098-3.163c0.964-0.022 1.517 0.593 1.549 1.531 0.022 0.805-0.501 1.517-1.451 1.632m-2.212-1.52c0.033 1.098 0.824 1.957 2.065 1.92 1.167-0.035 1.985-0.945 1.952-2.043-0.035-1.097-0.734-2.053-2.252-1.857l0.105 3.51c-0.916-0.051-1.466-0.738-1.491-1.542-0.016-0.512 0.172-1.118 0.547-1.422l-0.227-0.27c-0.488 0.393-0.718 1.081-0.699 1.704" style="fill:#e2ad45"/></g><g transform="translate(104.29 193.44)"><path d="m0 0h-3.414c-4.571 0-10.274 0.404-11.475 2.325l2.228 1.389c-0.029 0.047-0.054 0.07-0.054 0.07 0.684-0.615 5.028-1.157 9.301-1.159h3.414c4.274 0.002 8.622 0.544 9.305 1.161 0.746 1.208 0.58 2.91 0.578 2.926l-0.047 0.419 0.205 0.367c0.274 0.494 0.707 1.354 0.812 1.721 0.074 0.471 0.066 3.785 0.006 6.861-0.937 1.1-0.937 1.711-0.937 1.926 0 0.447 0.609 35.321 0.636 36.806 0.057 0.868 1.368 19.786 3.178 27.327 0.753 3.133 3.388 11.115 6.436 20.355 4.303 13.041 9.659 29.274 11.458 37.212l0.467 2.053c1.761 7.705 2.645 11.572 2.732 25.739 0.096 15.336 0.284 92.023 0.287 92.796-0.003 1.257-0.394 4.786-2.164 5.941-9.489 6.187-59.389 6.177-69.341-0.016-1.821-1.132-2.166-4.648-2.143-5.905 0-0.793 0.191-77.48 0.287-92.816l0.025-2.524-2.625-0.039-0.025 2.546c-0.096 15.34-0.287 92.032-0.287 92.805-0.014 0.593-0.025 6.045 3.384 8.164 10.695 6.651 61.952 6.641 72.159-0.016 3.27-2.133 3.355-7.539 3.355-8.146-0.003-0.775-0.191-77.467-0.287-92.805-0.087-14.455-0.993-18.418-2.798-26.308l-0.466-2.04c-1.827-8.07-7.204-24.36-11.525-37.46-3.03-9.186-5.647-17.117-6.375-20.145-1.76-7.325-3.097-26.633-3.111-26.826-0.205-11.892-0.595-34.15-0.63-36.501 0.117-0.184 0.373-0.5 0.562-0.694l0.351-0.369 0.012-0.511c0.102-4.813 0.07-7.547-0.096-8.126-0.169-0.592-0.598-1.441-0.856-1.932 0.029-0.834-0.049-2.647-1.047-4.245-1.204-1.919-6.906-2.321-11.475-2.321" style="fill:#eeda69"/></g><g transform="translate(90.359 205.87)"><path d="m0 0c0.66-0.417 1.093-1.069 1.257-1.776 0.415-1.816-0.638-3.052-2.087-3.392-1.436-0.345-2.997 0.284-3.419 2.13-0.164 0.708-0.058 1.483 0.356 2.145l0.312-0.227c-0.355-0.568-0.439-1.227-0.299-1.833 0.359-1.569 1.651-2.123 2.941-1.818 1.259 0.302 2.168 1.354 1.811 2.907-0.14 0.606-0.511 1.169-1.071 1.527z" style="fill:#eeda69"/></g><g transform="translate(86.116 213.43)"><path d="m0 0 2.34-0.108c-0.543 0.337-0.73 0.891-0.714 1.433 0.05 1.084 0.773 1.591 1.787 1.546l2.221-0.102-0.017-0.377-2.222 0.102c-0.8 0.038-1.361-0.316-1.4-1.187-0.036-0.815 0.567-1.41 1.372-1.447l2.129-0.096-0.018-0.387-5.495 0.254z" style="fill:#eeda69"/></g><g transform="translate(91.288 226.02)"><path d="m0 0c0.015-0.886-0.629-1.605-1.609-1.62-0.977-0.015-1.635 0.686-1.65 1.571-0.032 2.167 3.227 2.217 3.259 0.049m-3.604 1.538 0.85 0.013c-0.602-0.331-0.886-0.975-0.876-1.609 0.019-1.087 0.835-1.966 2.028-1.948 1.19 0.019 1.998 0.921 1.982 2.01-0.011 0.632-0.304 1.212-0.917 1.581l0.829 0.015-0.007 0.383c-1.3-0.018-2.596-0.039-3.896-0.059zm-1.625-1.698-0.006 0.316 1.025 1.136 0.056 0.002 0.006-0.418-0.745-0.872 0.771-0.849 0.007-0.421h-0.056z" style="fill:#eeda69"/></g><g transform="translate(86.348 236.5)"><path d="m0 0 1.176 0.016-0.021 1.327 0.324 0.004 0.021-1.325 2.374 0.035c0.529 0.008 0.898 0.123 0.889 0.732-0.002 0.189-0.069 0.402-0.166 0.597l0.313 0.141c0.121-0.244 0.205-0.488 0.209-0.732 0.013-0.83-0.473-1.103-1.238-1.117l-2.375-0.035 0.012-0.829-0.324-0.003-0.012 0.826-1.136-0.017z" style="fill:#eeda69"/></g><g transform="translate(89.084 248.81)"><path d="m0 0c-0.958-0.043-1.469-0.689-1.436-1.627 0.029-0.8 0.595-1.47 1.548-1.521zm0.283-3.536c-1.161-0.043-2.032 0.808-2.073 1.897-0.039 1.093 0.595 2.09 2.114 1.995l0.125-3.494c0.908 0.113 1.408 0.83 1.38 1.63-0.016 0.511-0.242 1.1-0.638 1.376l0.211 0.283c0.507-0.358 0.782-1.025 0.804-1.646 0.039-1.091-0.69-1.998-1.923-2.041" style="fill:#eeda69"/></g><g transform="translate(88.542 257.1)"><path d="m0 0c0.975 0.097 1.557 0.867 1.473 1.747-0.209 2.157-3.453 1.842-3.243-0.315 0.084-0.88 0.798-1.525 1.77-1.432m-2.282 3.369c1.294 0.125 2.582 0.25 3.878 0.378l0.037-0.386-0.824-0.08c0.639-0.318 0.98-0.872 1.04-1.499 0.104-1.085-0.626-2.051-1.812-2.166-1.183-0.112-2.071 0.696-2.176 1.779-0.061 0.629 0.168 1.292 0.741 1.67l-0.847-0.082z" style="fill:#eeda69"/></g><g transform="translate(88.772 271.64)"><path d="m0 0-0.691-0.106c0.574-0.213 0.874-0.716 0.965-1.251 0.159-1.026-0.363-1.831-1.427-1.996l-2.215-0.34-0.057 0.38 2.206 0.339c0.87 0.136 1.253 0.745 1.116 1.576-0.129 0.792-0.812 1.251-1.606 1.127l-2.137-0.332-0.059 0.384 3.847 0.595z" style="fill:#eeda69"/></g><g transform="translate(84.908 285.66)"><path d="m0 0-2.217-0.714c-0.714-0.227-1.06-0.87-0.835-1.573 0.226-0.703 0.907-1.022 1.618-0.794l2.195 0.704 0.119-0.367-2.196-0.706c-0.712-0.228-1.071-0.877-0.845-1.583 0.225-0.705 0.896-1.017 1.607-0.789l2.195 0.705 0.119-0.367-3.701-1.188-0.11 0.345 0.612 0.205c-0.569 0.097-0.923 0.505-1.077 0.984-0.18 0.56-0.115 1.235 0.474 1.663-0.679 0.032-1.171 0.507-1.354 1.078-0.289 0.906 0.139 1.754 1.06 2.05l2.22 0.711z" style="fill:#eeda69"/></g><g transform="translate(79.283 296)"><path d="m0 0c-0.91-0.312-1.223-1.081-0.927-1.969 0.252-0.764 0.989-1.255 1.924-1.035zm1.27-3.328c-1.11-0.369-2.189 0.205-2.534 1.247-0.343 1.039-0.015 2.18 1.477 2.516l1.105-3.332c0.843 0.365 1.124 1.197 0.87 1.959-0.16 0.487-0.543 0.992-1.002 1.147l0.121 0.33c0.592-0.2 1.046-0.765 1.242-1.357 0.345-1.042-0.103-2.12-1.279-2.51" style="fill:#eeda69"/></g><g transform="translate(75.051 303.13)"><path d="m0 0 3.714 1.212-0.119 0.367-3.716-1.212zm-1.35 0.096c0.388 0.13 0.582-0.463 0.193-0.59-0.39-0.128-0.582 0.465-0.193 0.59" style="fill:#eeda69"/></g><g transform="translate(70.871 310.84)"><path d="m0 0 5.243 1.682 0.119-0.368-5.243-1.683z" style="fill:#eeda69"/></g><g transform="translate(68.367 318.79)"><path d="m0 0 5.271 1.629 0.114-0.369-5.271-1.629z" style="fill:#eeda69"/></g><g transform="translate(69.516 327.55)"><path d="m0 0c0.943 0.248 1.396 1.1 1.173 1.95-0.552 2.092-3.695 1.268-3.144-0.828 0.223-0.851 1.028-1.37 1.971-1.122m-2.785 2.951c1.255 0.33 2.502 0.66 3.759 0.988l0.096-0.371-0.798-0.211c0.683-0.209 1.106-0.701 1.266-1.308 0.275-1.052-0.289-2.12-1.437-2.424-1.152-0.302-2.154 0.354-2.431 1.404-0.16 0.61-0.041 1.301 0.464 1.764l-0.822-0.215z" style="fill:#eeda69"/></g><g transform="translate(64.887 338.6)"><path d="m0 0 0.681 0.129c-0.582 0.193-0.901 0.685-1.011 1.219-0.195 1.021 0.295 1.843 1.355 2.047l2.203 0.421 0.072-0.378-2.195-0.421c-0.865-0.166-1.226-0.789-1.06-1.617 0.158-0.785 0.859-1.219 1.646-1.068l2.127 0.408 0.073-0.379-3.82-0.734z" style="fill:#eeda69"/></g><g transform="translate(62.182 350.41)"><path d="m0 0 1.171 0.065-0.073 1.32 0.321 0.017 0.074-1.318 2.362 0.134c0.526 0.028 0.888 0.159 0.854 0.762-0.009 0.189-0.084 0.398-0.189 0.589l0.305 0.152c0.132-0.239 0.224-0.476 0.238-0.72 0.047-0.822-0.424-1.118-1.187-1.161l-2.362-0.133 0.045-0.824-0.323-0.017-0.045 0.822-1.129-0.061z" style="fill:#eeda69"/></g></g><g aria-label="ii" style="fill:#e2ad45" transform="matrix(1 .0025269 .0025269 -1 433.43 144.2)"><path style="" d="m0.88441-4.3067h0.35379v4.3067h-0.35379zm0-1.6765h0.35379v0.4845h-0.35379z"/><path style="" d="m-71.606-323.72h0.35377v4.3067h-0.35377zm0-1.6765h0.35377v0.48451h-0.35377z"/></g><g clip-path="url(#clipPath570)"><g transform="translate(299.5 570.92)"><path d="m0 0c-148.3 0-268.94-120.65-268.94-268.94 0-148.3 120.65-268.94 268.94-268.94 148.3 0 268.94 120.65 268.94 268.94s-120.64 268.94-268.94 268.94m0-563.89c-78.782 0-152.85 30.68-208.56 86.387-55.708 55.708-86.387 129.77-86.387 208.56 0 78.783 30.679 152.85 86.387 208.56 55.71 55.7 129.78 86.38 208.56 86.38 78.782 0 152.85-30.68 208.56-86.388 55.708-55.708 86.387-129.77 86.387-208.56 0-78.784-30.679-152.85-86.387-208.56-55.71-55.7-129.78-86.38-208.56-86.38" style="fill:#8faf6e"/></g><g transform="translate(272.7 289.75)"><path d="m0 0h-167.84c-0.834 0-1.511 0.676-1.511 1.511 0 0.834 0.677 1.51 1.511 1.51h167.84c0.834 0 1.511-0.676 1.511-1.51 0-0.835-0.677-1.511-1.511-1.511" style="fill:#fff"/></g><g transform="translate(283.36 291.16)"><path d="m0 0c0-5.033 3.344-7.605 7.422-7.605 4.263 0 7.422 3.123 7.422 7.642 0 4.52-3.233 7.606-7.422 7.606-4.078 0-7.422-2.536-7.422-7.643m16.645 16.645v-25.72h-1.764v4.005c-1.506-2.756-4.483-4.299-7.568-4.299-5.072 0-9.077 3.344-9.077 9.369 0 5.989 4.042 9.37 9.113 9.37 3.123 0 6.062-1.323 7.532-4.263v11.538z" style="fill:#fff"/></g><g transform="translate(319.27 282.08)"><path d="m0 0v3.271c-1.396-2.5-3.932-3.528-6.467-3.565-4.85 0-8.194 2.977-8.194 8.01v10.472h1.801v-10.435c0-4.115 2.535-6.32 6.466-6.283 3.748 0.037 6.357 2.866 6.357 6.613v10.105h1.801v-18.188z" style="fill:#fff"/></g><g transform="translate(490.64 289.79)"><path d="m0 0h-159.54c-0.814 0-1.473 0.659-1.473 1.473 0 0.813 0.659 1.472 1.473 1.472h159.54c0.813 0 1.473-0.659 1.473-1.472 0-0.814-0.66-1.473-1.473-1.473" style="fill:#fff"/></g><g transform="translate(141.64 230.63)"><path d="m0 0c-3.97-3.914-9.097-5.733-14.665-5.733-14.334 0-20.398 9.868-20.453 19.901-0.055 10.089 6.505 20.344 20.453 20.344 5.238 0 10.199-1.986 14.168-5.9l-4.851-4.685c-2.536 2.48-5.954 3.637-9.317 3.637-9.317 0-13.341-6.946-13.286-13.396 0.055-6.395 3.749-13.065 13.286-13.065 3.363 0 7.167 1.377 9.703 3.914z" style="fill:#fff"/></g><g transform="translate(172.78 225.77)"><path d="m0 0h-28.888v38.591h28.888v-7.057h-21.666v-8.876h20.895v-6.78h-20.895v-8.711h21.666z" style="fill:#fff"/></g><g transform="translate(203.15 264.42)"><path d="m0 0h7.277v-38.646h-4.52v-0.055l-20.288 26.076v-26.021h-7.278v38.59h5.899l18.91-23.925z" style="fill:#fff"/></g><g transform="translate(225.37 257.75)"><path d="m0 0h-12.239v6.615h31.755v-6.615h-12.239v-31.976h-7.277z" style="fill:#fff"/></g><g transform="translate(254.91 257.58)"><path d="m0 0v-12.349h11.081c4.631 0 6.616 3.087 6.616 6.175 0 3.087-2.04 6.174-6.616 6.174zm26.903-31.81h-8.655l-11.247 12.901h-7.001v-12.901h-7.277v38.647c6.119 0 12.238-0.056 18.358-0.056 9.097-0.054 13.893-6.119 13.893-12.79 0-5.292-2.426-10.639-9.758-12.129l11.687-13.175z" style="fill:#fff"/></g><g transform="translate(311.86 225.77)"><path d="m0 0h-28.888v38.591h28.888v-7.057h-21.666v-8.876h20.895v-6.78h-20.895v-8.711h21.666z" style="fill:#fff"/></g><path d="m316 244.57h19.296v-2.867h-19.296z" style="fill:#fff"/><g transform="translate(347.69 264.37)"><path d="m0 0v-31.865h19.846v-6.726h-27.123v38.591z" style="fill:#fff"/></g><g transform="translate(375.25 244.68)"><path d="m0 0c0.166-6.34 3.584-13.12 12.682-13.12 9.095 0 12.513 6.836 12.623 13.176 0.111 6.505-3.528 13.782-12.623 13.782-9.098 0-12.846-7.332-12.682-13.838m32.473 0.166c-0.112-9.979-6.231-19.957-19.791-19.957-13.563 0-19.848 9.758-19.848 19.901 0 10.145 6.506 20.344 19.848 20.344 13.285 0 19.9-10.199 19.791-20.288" style="fill:#fff"/></g><path d="m411.41 264.36h7.221v-38.591h-7.221z" style="fill:#fff"/><g transform="translate(431.09 257.58)"><path d="m0 0v-12.349h11.08c4.631 0 6.617 3.087 6.617 6.175 0 3.087-2.041 6.174-6.617 6.174zm26.902-31.81h-8.654l-11.246 12.901h-7.002v-12.901h-7.277v38.647c6.119 0 12.238-0.056 18.357-0.056 9.098-0.054 13.893-6.119 13.893-12.79 0-5.292-2.424-10.639-9.758-12.129l11.687-13.175z" style="fill:#fff"/></g><g transform="translate(488.04 225.77)"><path d="m0 0h-28.889v38.591h28.889v-7.057h-21.666v-8.876h20.895v-6.78h-20.895v-8.711h21.666z" style="fill:#fff"/></g><g transform="translate(250.1 392.51)"><path d="m0 0-29.588-72.121h-5.959l-29.589 72.121h5.959l26.609-65.752 26.609 65.752z" style="fill:#fff"/></g><path d="m262.23 392.51h5.445v-71.916h-5.445z" style="fill:#fff"/><g transform="translate(288.42 392.51)"><path d="m0 0 48.388-59.484v59.484h5.445v-71.916h-2.156l-48.492 59.382v-59.382h-5.548v71.916z" style="fill:#fff"/></g><g transform="translate(408.53 378.64)"><path d="m0 0c-5.24 8.424-13.664 9.657-21.781 9.76-8.424 0-21.78-3.082-21.78-14.589 0-9.144 9.864-11.301 21.987-13.562 13.869-2.671 28.252-5.136 28.252-20.649-0.104-16.233-16.438-20.137-28.459-20.137-11.198 0-23.938 4.623-29.485 15.616l4.932 2.466c4.418-8.733 15.719-13.048 24.553-13.048 8.836 0 22.912 2.466 22.912 15.205 0.101 10.788-11.817 13.151-23.631 15.411-13.15 2.568-26.609 5.24-26.609 18.493-0.307 15.205 15.513 19.93 27.328 19.93 10.275 0 19.213-1.643 26.301-12.225z" style="fill:#fff"/></g></g></g></svg>
